<?xml version="1.0" standalone="no"?>
<!DOCTYPE svg PUBLIC "-//W3C//DTD SVG 1.1//EN" "http://www.w3.org/Graphics/SVG/1.1/DTD/svg11.dtd" >
<svg>
<metadata>
Created by FontForge 20090622 at Wed Apr 25 08:06:29 2018
 By deploy user
Digitized data copyright The Monotype Corporation 1991-1995. All rights reserved.
</metadata>
<defs>
<font id="OCRAExtended" horiz-adv-x="1237" >
  <font-face 
    font-family="OCR A Extended"
    font-weight="400"
    font-stretch="normal"
    units-per-em="2048"
    panose-1="2 1 5 9 2 1 2 1 3 3"
    ascent="1638"
    descent="-410"
    x-height="965"
    cap-height="1329"
    bbox="-10 -362 1792 1757"
    underline-thickness="170"
    underline-position="-1"
    unicode-range="U+0020-U+F003"
  />
<missing-glyph horiz-adv-x="2048" 
d="M256 0v1536h1536v-1536h-1536zM384 128h1280v1280h-1280v-1280z" />
    <glyph glyph-name=".notdef" horiz-adv-x="2048" 
d="M256 0v1536h1536v-1536h-1536zM384 128h1280v1280h-1280v-1280z" />
    <glyph glyph-name=".null" horiz-adv-x="0" 
 />
    <glyph glyph-name="nonmarkingreturn" 
 />
    <glyph glyph-name="space" unicode=" " 
 />
    <glyph glyph-name="exclam" unicode="!" 
d="M754 1243l-41 -651q-3 -36 -27 -60t-57 -24q-37 0 -60.5 25t-25.5 59l-41 653q-2 34 23.5 59t60.5 25h84q35 0 60.5 -26.5t23.5 -59.5zM586 244h80q35 0 60.5 -25t25.5 -59v-74q0 -35 -24.5 -59.5t-59.5 -24.5h-84q-35 0 -59.5 24.5t-24.5 59.5v72q1 35 26 60.5t60 25.5z
" />
    <glyph glyph-name="quotedbl" unicode="&#x22;" 
d="M203 1331h848v-78l-84 -452q-15 -72 -86 -72q-70 0 -84 72l-72 360h-195l-73 -362q-17 -72 -84 -72q-73 0 -86 72l-84 454v78z" />
    <glyph glyph-name="numbersign" unicode="#" 
d="M545 510v-207q0 -35 -24.5 -60.5t-59.5 -25.5t-59.5 25.5t-24.5 60.5v207h-86q-35 0 -59.5 24.5t-24.5 59.5q0 34 24.5 59t59.5 25h84v192h-84q-35 0 -59.5 24.5t-24.5 59.5q0 36 24.5 60t59.5 24h86v207q0 35 24.5 59.5t59.5 24.5q34 0 59 -25t25 -59v-207h168v207
q0 35 25 59.5t59 24.5q35 0 60.5 -25t25.5 -59v-207h86q34 0 59 -24.5t25 -59.5q0 -36 -27 -61t-57 -25h-84v-190h84q33 0 58.5 -25t25.5 -59q0 -33 -23.5 -58.5t-60.5 -25.5h-86v-207q0 -35 -25.5 -60.5t-60.5 -25.5q-34 0 -59 25.5t-25 60.5v207h-168zM545 868v-190h168
v190h-168z" />
    <glyph glyph-name="dollar" unicode="$" 
d="M1055 666v-291q0 -34 -25.5 -59t-60.5 -25h-256v-205q0 -35 -25 -59.5t-59 -24.5q-36 0 -61 24.5t-25 59.5v207h-254q-34 0 -59 24.5t-25 59.5t24.5 59.5t59.5 24.5h594v121h-592q-35 0 -59.5 24t-24.5 60v290q0 35 24.5 59.5t59.5 24.5h252v205q0 34 23.5 59t63.5 25
q34 0 58.5 -24.5t24.5 -59.5v-205h258q35 0 60.5 -25t25.5 -59q0 -35 -25.5 -60.5t-60.5 -25.5h-594v-120h592q35 0 60.5 -25t25.5 -59z" />
    <glyph glyph-name="percent" unicode="%" 
d="M287 1329h170q35 0 60.5 -25.5t25.5 -60.5v-145q0 -35 -25 -60.5t-59 -25.5h-174q-34 0 -58 25t-24 59v147q0 35 25 60.5t59 25.5zM1028 1036l-680 -866q-21 -25 -55 -25q-33 0 -60.5 24.5t-27.5 58.5q0 32 22 61l680 868q21 25 58 25q35 0 60.5 -23t25.5 -59
q0 -34 -23 -64zM795 315h170q35 0 59.5 -24t24.5 -60v-147q0 -35 -24.5 -59.5t-59.5 -24.5h-172q-35 0 -58.5 24t-23.5 60v147q0 36 24 60t60 24z" />
    <glyph glyph-name="ampersand" unicode="&#x26;" 
d="M913 25l-100 104l-129 -111q-12 -16 -47 -16h-174q-105 0 -179.5 75t-74.5 181v117q0 41 33 69l153 131l-155 170q-31 34 -31 78v105q0 104 75 179t179 75h170q104 0 179 -75t75 -179v-113q0 -47 -43 -84l-201 -172l184 -194l86 71q29 25 64 25q34 0 57.5 -25t23.5 -59
q0 -35 -26 -58l-88 -77l88 -99q24 -27 24 -61t-24.5 -58t-59.5 -24t-59 25zM719 848v82q0 35 -24.5 60.5t-59.5 25.5h-172q-35 0 -59.5 -25.5t-24.5 -60.5v-84l149 -160zM379 336v-82q0 -35 25 -59.5t59 -24.5h137l96 84l-182 197z" />
    <glyph glyph-name="quotesingle" unicode="'" 
d="M551 1329h166q35 0 60 -25.5t25 -59.5q0 -11 -3 -21l-168 -578q-20 -63 -82 -63q-37 0 -61.5 26t-24.5 64v563q0 40 23.5 67t64.5 27z" />
    <glyph glyph-name="parenleft" unicode="(" 
d="M629 825v-323q0 -65 39 -115l200 -256q15 -17 15 -48q0 -40 -26 -63t-61 -23q-37 0 -57 26l-202 258q-76 94 -76 204v359q0 106 76 203l202 258q21 26 56 26t61.5 -23t26.5 -64q0 -30 -15 -48l-200 -254q-39 -51 -39 -117z" />
    <glyph glyph-name="parenright" unicode=")" 
d="M643 502v325q0 63 -41 115l-201 254q-14 19 -14 47q0 39 26.5 63.5t60.5 24.5q35 0 56 -26l205 -258q74 -93 74 -203v-359q0 -112 -74 -204l-205 -258q-21 -26 -57 -26q-34 0 -60 24t-26 64q0 30 14 48l201 254q41 50 41 115z" />
    <glyph glyph-name="asterisk" unicode="*" 
d="M568 850v248q0 34 25.5 59t60.5 25q34 0 59 -25t25 -59v-252l196 168q28 23 64 23t59 -25.5t23 -58.5q0 -36 -25 -58l-270 -231l268 -230q25 -22 25 -57t-24 -60t-59 -25q-33 0 -61 23l-196 168v-252q0 -34 -25 -59t-59 -25q-36 0 -61 25t-25 59v248l-193 -166
q-27 -22 -60 -22q-35 0 -59.5 25.5t-24.5 60.5q0 36 25 57l271 230l-269 231q-26 23 -26 60q0 34 25 59.5t59 25.5t61 -24z" />
    <glyph glyph-name="plus" unicode="+" 
d="M545 752v258q0 34 25 58t61 24q34 0 58 -24t24 -58v-258h258q35 0 60.5 -24.5t25.5 -59.5t-25.5 -59.5t-60.5 -24.5h-256v-258q0 -36 -25.5 -61t-60.5 -25t-59.5 25t-24.5 61v258h-258q-34 0 -59 24.5t-25 59.5q0 34 25 59t59 25h258z" />
    <glyph glyph-name="comma" unicode="," 
d="M883 522v-436q0 -35 -24.5 -59.5t-59.5 -24.5t-59.5 24.5t-24.5 59.5v352h-256q-35 0 -59.5 25.5t-24.5 60.5q0 34 25 59t59 25h340q35 0 59.5 -25t24.5 -61z" />
    <glyph glyph-name="hyphen" unicode="-" 
d="M1053 670v-74q0 -35 -24.5 -60.5t-59.5 -25.5h-678q-35 0 -59.5 25.5t-24.5 60.5v74q0 35 24.5 59.5t59.5 24.5h678q32 0 58 -23.5t26 -60.5z" />
    <glyph glyph-name="period" unicode="." 
d="M543 530h170q34 0 59 -24.5t25 -59.5v-143q0 -35 -24.5 -60.5t-59.5 -25.5h-172q-35 0 -59.5 25t-24.5 59v145q0 35 25 59.5t61 24.5z" />
    <glyph glyph-name="slash" unicode="/" 
d="M1050 1184l-682 -1159q-16 -26 -51 -26q-33 0 -61.5 22.5t-28.5 57.5q0 31 20 66l682 1158q17 27 53 27q32 0 60.5 -21.5t28.5 -56.5q0 -33 -21 -68z" />
    <glyph glyph-name="zero" unicode="0" 
d="M203 164v1005q0 66 48 114t114 48h524q65 0 112.5 -48t47.5 -114v-1005q0 -67 -47.5 -114.5t-114.5 -47.5h-522q-68 0 -115 47.5t-47 114.5zM883 170v991h-512v-991h512z" />
    <glyph glyph-name="one" unicode="1" 
d="M285 170h258v991h-254q-35 0 -59.5 24.5t-24.5 59.5t24.5 59.5t59.5 24.5h422v-1159h168v350q0 34 24.5 59t59.5 25t59.5 -24.5t24.5 -59.5v-434q0 -35 -24.5 -59.5t-59.5 -24.5h-678q-35 0 -59.5 25.5t-24.5 60.5q0 34 24.5 58t59.5 24z" />
    <glyph glyph-name="two" unicode="2" 
d="M969 2h-764v580q0 70 49.5 120t118.5 50h510v409h-600q-36 0 -60 24.5t-24 59.5t24 59.5t60 24.5h600q70 0 120 -49.5t50 -118.5v-409q0 -71 -50 -120.5t-120 -49.5h-510v-412h596q34 0 59 -24.5t25 -59.5t-25 -59.5t-59 -24.5z" />
    <glyph glyph-name="three" unicode="3" 
d="M1053 1161v-315q0 -110 -68 -178q70 -78 70 -170v-328q0 -69 -50 -118.5t-120 -49.5h-594q-35 0 -59.5 24.5t-24.5 59.5t24.5 59.5t59.5 24.5h592v328q0 35 -24.5 60.5t-59.5 25.5h-338q-35 0 -59.5 24t-24.5 60q0 35 24.5 59.5t59.5 24.5h340q34 0 59 24.5t25 59.5v325
h-600q-35 0 -59.5 24.5t-24.5 59.5t24.5 59.5t59.5 24.5h600q70 0 119 -49.5t49 -118.5z" />
    <glyph glyph-name="four" unicode="4" 
d="M756 86v350h-506v809q0 35 25.5 60.5t60.5 25.5q34 0 59 -25.5t25 -60.5v-639h336v492q0 35 24.5 60.5t59.5 25.5t59.5 -25.5t24.5 -60.5v-492q35 0 59.5 -24.5t24.5 -59.5t-24.5 -59.5t-59.5 -24.5v-352q0 -35 -25 -59.5t-59 -24.5q-35 0 -59.5 24.5t-24.5 59.5z" />
    <glyph glyph-name="five" unicode="5" 
d="M514 170h389v412h-508v747h592q34 0 59 -25t25 -59q0 -35 -24.5 -59.5t-59.5 -24.5h-422v-411h338q68 0 118 -50t50 -118v-412q0 -69 -49.5 -118.5t-118.5 -49.5h-389q-52 0 -111 25l-127 53q-51 21 -51 80q0 35 23 59.5t56 24.5q25 0 58 -15l111 -47q20 -12 41 -12z" />
    <glyph glyph-name="six" unicode="6" 
d="M293 1329h84q35 0 59.5 -25t24.5 -59q0 -35 -24.5 -59.5t-59.5 -24.5v-555h592q34 0 59 -25.5t25 -60.5v-434q0 -35 -25.5 -59.5t-60.5 -24.5h-674q-35 0 -60.5 25t-25.5 59v1159q0 35 25 59.5t61 24.5zM375 436v-266h508v266h-508z" />
    <glyph glyph-name="seven" unicode="7" 
d="M203 1171v72q0 35 24.5 59.5t59.5 24.5h762v-516q0 -41 -31 -68l-309 -264v-391q0 -35 -24.5 -60.5t-59.5 -25.5t-60.5 25t-25.5 59v424q0 48 30 74l310 262v313h-508q-18 -72 -84 -72q-35 0 -59.5 24.5t-24.5 59.5z" />
    <glyph glyph-name="eight" unicode="8" 
d="M201 172v410q0 69 50 118.5t120 49.5v495q0 35 24 59.5t60 24.5h342q35 0 59.5 -24.5t24.5 -59.5v-495q68 0 118 -48.5t50 -119.5v-412q0 -69 -50 -118.5t-118 -49.5h-510q-71 0 -120.5 52t-49.5 118zM539 1161v-411h174v411h-174zM371 582v-412h510v412h-510z" />
    <glyph glyph-name="nine" unicode="9" 
d="M969 4h-84q-34 0 -59 24.5t-25 59.5t24.5 59.5t59.5 24.5v555h-592q-34 0 -59 25t-25 59v436q0 34 25 59t59 25h676q34 0 59 -25t25 -59v-1159q0 -35 -24.5 -59.5t-59.5 -24.5zM887 897v264h-510v-264h510z" />
    <glyph glyph-name="colon" unicode=":" 
d="M545 1110h168q36 0 61 -27t25 -57v-145q0 -34 -25.5 -59t-58.5 -25h-172q-35 0 -58.5 24t-23.5 60v145q0 34 24.5 59t59.5 25zM545 530h168q35 0 60.5 -24.5t25.5 -59.5v-143q0 -35 -25 -60.5t-59 -25.5h-172q-35 0 -58.5 25t-23.5 59v145q0 36 24.5 60t59.5 24z" />
    <glyph glyph-name="semicolon" unicode=";" 
d="M457 1186h170q35 0 59.5 -24.5t24.5 -59.5v-144q0 -35 -24.5 -59.5t-59.5 -24.5h-170q-35 0 -59.5 24.5t-24.5 59.5v144q0 34 25 59t59 25zM877 522v-436q0 -35 -25 -59.5t-59 -24.5q-36 0 -61 24.5t-25 59.5v352h-256q-34 0 -58 25.5t-24 60.5q0 34 24.5 59t59.5 25h340
q33 0 58.5 -25.5t25.5 -60.5z" />
    <glyph glyph-name="less" unicode="&#x3c;" 
d="M207 633v65q0 50 51 80l662 391q27 18 54 18q32 0 57.5 -25t25.5 -61q0 -47 -37 -69l-619 -366l619 -365q37 -24 37 -71q0 -36 -25.5 -61t-57.5 -25q-25 0 -54 18l-662 391q-51 28 -51 80z" />
    <glyph glyph-name="equal" unicode="=" 
d="M967 799h-680q-34 0 -59 25t-25 59t25 59t59 25h680q35 0 59.5 -24.5t24.5 -59.5t-24.5 -59.5t-59.5 -24.5zM967 436h-680q-34 0 -59 25.5t-25 60.5t25 59.5t59 24.5h680q34 0 59 -25t25 -59q0 -35 -24.5 -60.5t-59.5 -25.5z" />
    <glyph glyph-name="greater" unicode="&#x3e;" 
d="M1078 698v-65q0 -51 -49 -80l-662 -391q-29 -18 -55 -18q-32 0 -57.5 24t-25.5 61q0 48 38 70l618 367l-618 364q-38 24 -38 72q0 37 25.5 61t57.5 24q25 0 55 -18l662 -391q49 -29 49 -80z" />
    <glyph glyph-name="question" unicode="?" 
d="M1052 897l-485 -418v-104q0 -34 -25 -59t-59 -25q-35 0 -59.5 25t-24.5 59v139q0 45 26 68l480 413v62l-84 76l-447 -383q-30 -26 -62 -26q-31 0 -57 24t-26 62q0 41 22 60l516 439q23 19 56 19q31 0 51 -17l172 -150q29 -22 29 -63v-144q0 -38 -23 -57zM481 172
q35 0 59.5 -25.5t24.5 -60.5t-24.5 -59.5t-59.5 -24.5t-59.5 24.5t-24.5 59.5t24.5 60.5t59.5 25.5z" />
    <glyph glyph-name="at" unicode="@" 
d="M885 254v786q0 46 -37 83.5t-84 37.5h-258q-57 0 -83 -21t-53.5 -72.5t-76.5 -51.5q-39 0 -62.5 24t-23.5 56q0 64 81.5 148.5t192.5 84.5h287q111 0 198 -87.5t87 -207.5v-790q0 -94 -74 -168t-174 -74q-105 0 -172 66q-66 -66 -170 -66q-107 0 -180.5 75t-73.5 167v323
q0 104 74.5 179t179.5 75h164q90 0 90 -90v-477q0 -35 24.5 -59.5t59.5 -24.5q34 0 59 24.5t25 59.5zM549 254v399h-76q-94 0 -94 -94v-305q0 -35 25 -59.5t59 -24.5q35 0 60.5 24.5t25.5 59.5z" />
    <glyph glyph-name="A" unicode="A" 
d="M212 117l340 1149q20 63 84 63q62 0 78 -53l335 -1167q4 -13 4 -25q0 -35 -24 -59.5t-55 -24.5q-66 0 -84 61l-68 228h-383l-74 -244q-3 -16 -25 -30.5t-48 -14.5q-37 0 -61 25t-24 61q0 15 5 31zM634 940l-144 -481h283z" />
    <glyph glyph-name="B" unicode="B" 
d="M1053 412v-74q0 -139 -98.5 -238.5t-237.5 -99.5h-514v1329h514q139 0 237.5 -99t98.5 -239v-71q0 -149 -115 -254q115 -107 115 -254zM881 922v69q0 70 -49.5 120t-118.5 50h-342v-407h342q68 0 118 49.5t50 118.5zM881 338v70q0 70 -49.5 120t-118.5 50h-340v-408h340
q68 0 118 49.5t50 118.5z" />
    <glyph glyph-name="C" unicode="C" 
d="M668 168h303q35 0 60.5 -24.5t25.5 -59.5t-25.5 -59.5t-60.5 -24.5h-314q-60 0 -124 38t-89 85l-194 375q-39 81 -39 166q0 94 37 163l196 371q28 52 87 91.5t114 39.5h332q35 0 59.5 -25t24.5 -59q0 -35 -24.5 -60.5t-59.5 -25.5h-320q-40 0 -65 -47l-186 -348
q-22 -41 -22 -97q0 -59 24 -104l178 -342q25 -53 82 -53z" />
    <glyph glyph-name="D" unicode="D" 
d="M289 1329h332q65 -1 126.5 -42t90.5 -99l166 -336q47 -91 47 -190q0 -92 -50 -189l-167 -332q-32 -64 -92 -102.5t-134 -38.5h-321q-35 0 -59.5 25t-24.5 59q0 35 24.5 60.5t59.5 25.5h88v989h-86q-35 0 -59.5 25.5t-24.5 60.5q0 34 24.5 59t59.5 25zM543 1159v-991h59
q56 0 84 55l166 330q31 65 31 109q0 55 -25 104l-172 342q-27 51 -88 51h-55z" />
    <glyph glyph-name="E" unicode="E" 
d="M969 1159h-594v-409h256q34 0 59 -25t25 -59q0 -36 -24.5 -61t-59.5 -25h-256v-412h596q34 0 59 -24.5t25 -59.5t-25.5 -59.5t-60.5 -24.5h-762v1329h762q35 0 60.5 -25.5t25.5 -60.5q0 -34 -25.5 -59t-60.5 -25z" />
    <glyph glyph-name="F" unicode="F" 
d="M207 84v1245h762q33 0 58.5 -25t25.5 -59q0 -35 -25 -60.5t-59 -25.5h-594v-264h426q35 0 59.5 -24.5t24.5 -59.5t-24.5 -59.5t-59.5 -24.5h-426v-643q0 -35 -24.5 -59.5t-59.5 -24.5t-59.5 24.5t-24.5 59.5z" />
    <glyph glyph-name="G" unicode="G" 
d="M694 1329h279q35 0 59.5 -24.5t24.5 -59.5q0 -37 -26.5 -61.5t-57.5 -24.5h-266q-39 0 -68 -37l-236 -303q-30 -36 -30 -100v-465q0 -36 24.5 -61t59.5 -25h342q34 0 59 25t25 59v182h-174q-36 0 -60 24.5t-24 59.5t24 59.5t60 24.5h342v-350q0 -104 -74 -178t-178 -74
h-342q-105 0 -179.5 74t-74.5 178v465q0 125 67 211l248 315q27 36 75.5 61t100.5 25z" />
    <glyph glyph-name="H" unicode="H" 
d="M203 84v1161q0 34 24.5 59t59.5 25q34 0 59 -25t25 -59v-495h512v495q0 34 24.5 59t59.5 25t59.5 -25t24.5 -61v-1159q0 -34 -25.5 -59t-58.5 -25q-36 0 -60 24.5t-24 59.5v498h-510v-498q0 -34 -25.5 -59t-60.5 -25q-34 0 -59 24.5t-25 59.5z" />
    <glyph glyph-name="I" unicode="I" 
d="M289 1329h680q33 0 58.5 -25t25.5 -59q0 -35 -25 -60.5t-59 -25.5h-254v-991h254q35 0 59.5 -24.5t24.5 -59.5t-25 -59.5t-59 -24.5h-680q-35 0 -59.5 24.5t-24.5 59.5t24.5 59.5t59.5 24.5h258v991h-258q-35 0 -59.5 25t-24.5 59q0 36 24.5 61t59.5 25z" />
    <glyph glyph-name="J" unicode="J" 
d="M289 254v266q0 35 24.5 59.5t59.5 24.5t59.5 -24.5t24.5 -59.5v-268q0 -34 25 -58t61 -24h170q35 0 60.5 24.5t25.5 59.5v991q0 35 24 59.5t58 24.5t60 -27t26 -61v-987q0 -106 -77 -180t-177 -74h-170q-105 0 -179.5 75t-74.5 179z" />
    <glyph glyph-name="K" unicode="K" 
d="M205 84v1159q0 36 24.5 61t59.5 25t59.5 -24.5t24.5 -59.5v-397l538 459q28 23 63 23t59 -26t24 -60q0 -35 -27 -58l-610 -518l610 -527q25 -21 25 -54t-24.5 -60t-60.5 -27q-34 0 -61 23l-536 462v-401q0 -35 -24.5 -59.5t-59.5 -24.5q-34 0 -59 24.5t-25 59.5z" />
    <glyph glyph-name="L" unicode="L" 
d="M207 0v1245q0 34 25 59t59 25t59 -25t25 -59v-1077h594q35 0 60.5 -24.5t25.5 -59.5t-25.5 -59.5t-60.5 -24.5h-762z" />
    <glyph glyph-name="M" unicode="M" 
d="M545 807v43l-174 248v-1014q0 -35 -24.5 -59.5t-59.5 -24.5t-59.5 25t-24.5 59v1245h217l207 -301l213 301h213v-1245q0 -35 -25.5 -59.5t-60.5 -24.5q-34 0 -59 25t-25 59v1010l-170 -240v-47q0 -34 -25 -59t-59 -25q-35 0 -59.5 25t-24.5 59z" />
    <glyph glyph-name="N" unicode="N" 
d="M1053 1243v-1243h-226l-452 1032v-948q0 -35 -24.5 -59.5t-59.5 -24.5t-59.5 24.5t-24.5 59.5v1245h223l453 -1030v944q0 35 25.5 60.5t60.5 25.5t59.5 -25t24.5 -61z" />
    <glyph glyph-name="O" unicode="O" 
d="M829 1206l185 -377q39 -77 39 -167q0 -88 -39 -166l-185 -373q-59 -123 -200 -123q-67 0 -120.5 35t-80.5 88l-186 373q-37 73 -37 166t37 167l186 377q63 123 201 123q140 0 200 -123zM573 1122l-174 -354q-24 -53 -24 -104q0 -55 24 -105l179 -358q14 -33 51 -33
q32 0 49 33l180 358q25 53 25 105q0 55 -25 104l-176 354q-17 39 -53 39t-56 -39z" />
    <glyph glyph-name="P" unicode="P" 
d="M207 84v1245h596q103 0 177.5 -75t74.5 -179v-315q0 -104 -74 -178t-178 -74h-426v-424q0 -35 -24.5 -59.5t-59.5 -24.5q-36 0 -61 24.5t-25 59.5zM377 676h426q34 0 59 24.5t25 59.5v315q0 35 -25 59.5t-59 24.5h-426v-483z" />
    <glyph glyph-name="Q" unicode="Q" 
d="M340 961l358 309q72 59 148 59q84 0 145.5 -61t61.5 -131v-514q0 -146 -125 -252l-113 -97l43 -106h113q35 0 59.5 -24.5t24.5 -59.5t-24.5 -59.5t-59.5 -24.5h-230l-61 158l-115 -95q-76 -63 -153 -63q-88 0 -147.5 60.5t-59.5 146.5v469q0 88 27 151.5t108 133.5z
M809 1147l-358 -309q-47 -41 -62.5 -78t-15.5 -105v-438q0 -52 40 -52q16 0 31 13l170 146l-55 147q-12 29 -12 50q0 31 25 55.5t59 24.5q59 0 78 -48l43 -113q73 57 102 94.5t29 88.5v495q0 42 -38 42q-21 0 -36 -13z" />
    <glyph glyph-name="R" unicode="R" 
d="M209 84v1245h594q103 0 177.5 -75t74.5 -179v-96q0 -105 -74 -179.5t-178 -74.5h-107l344 -590q16 -26 16 -52q0 -34 -26 -58.5t-59 -24.5q-50 0 -76 45l-395 680h-121v-641q0 -35 -25.5 -59.5t-60.5 -24.5t-59.5 24.5t-24.5 59.5zM377 893h426q35 0 59.5 24.5t24.5 59.5
v98q0 35 -24.5 59.5t-59.5 24.5h-426v-266z" />
    <glyph glyph-name="S" unicode="S" 
d="M397 1329h437q80 0 151.5 -67.5t71.5 -163.5q0 -36 -25.5 -61t-56.5 -25q-43 0 -59 19.5t-30.5 72.5t-64.5 53h-415q-30 0 -30 -19q0 -12 13 -28l623 -797q45 -58 45 -124q0 -75 -54.5 -132t-121.5 -57h-453q-90 0 -156.5 68.5t-66.5 150.5q0 94 88 94q34 0 58 -24.5
t24 -57.5q0 -27 18.5 -45t46.5 -18h418q27 0 27 21q0 10 -13 26l-622 797q-44 57 -44 124q0 78 56 135.5t135 57.5z" />
    <glyph glyph-name="T" unicode="T" 
d="M205 1100v227h848v-229q0 -35 -25 -59.5t-59 -24.5q-35 0 -60.5 25t-25.5 59v61h-170v-1075q0 -35 -25 -59.5t-59 -24.5q-36 0 -61 24.5t-25 59.5v1075h-170v-59q0 -35 -24.5 -59.5t-59.5 -24.5t-59.5 24.5t-24.5 59.5z" />
    <glyph glyph-name="U" unicode="U" 
d="M205 252v991q0 35 25 60.5t59 25.5t59 -25t25 -59v-993q0 -33 25 -57.5t59 -24.5h344q35 0 59.5 24t24.5 58v991q0 36 24.5 61t59.5 25t59.5 -25t24.5 -61v-989q0 -104 -74.5 -179t-177.5 -75h-344q-104 0 -178 74t-74 178z" />
    <glyph glyph-name="V" unicode="V" 
d="M1057 1243v-309l-342 -871q-26 -63 -82 -63q-59 0 -84 63l-340 871v309q0 36 24.5 61t59.5 25t59.5 -25t24.5 -61v-274l256 -652l256 650v276q0 36 24.5 61t59.5 25t59.5 -25t24.5 -61z" />
    <glyph glyph-name="W" unicode="W" 
d="M715 809v-559l49 -82h70l51 84v991q0 35 25.5 60.5t60.5 25.5q34 0 59 -25t25 -59v-1020q0 -19 -21 -53l-78 -129q-24 -43 -73 -43h-158q-75 0 -96 68q-23 -68 -92 -68h-148q-64 0 -92 47l-72 121q-20 33 -20 57v1018q0 35 25.5 60.5t60.5 25.5q33 0 57.5 -25.5
t24.5 -60.5v-995l49 -80h72l53 84v557q0 35 24.5 59.5t59.5 24.5t59.5 -24.5t24.5 -59.5z" />
    <glyph glyph-name="X" unicode="X" 
d="M644 498l-267 -457q-23 -40 -71 -40q-36 0 -61.5 26t-25.5 57q0 24 15 49l313 531l-307 528q-18 31 -18 57q0 32 25 56.5t58 24.5q49 0 72 -40l271 -456l266 454q25 41 71 41q35 0 61 -24t26 -58q0 -23 -13 -45l-315 -536l313 -539q12 -20 12 -43q0 -36 -24.5 -60
t-59.5 -24q-49 0 -73 41z" />
    <glyph glyph-name="Y" unicode="Y" 
d="M717 637v-553q0 -35 -25 -59.5t-59 -24.5q-36 0 -61 24.5t-25 59.5v553l-338 428v178q0 36 24.5 61t59.5 25t60.5 -25.5t25.5 -60.5v-115l252 -325l256 323v117q0 35 25 60.5t59 25.5q33 0 58.5 -23.5t25.5 -62.5v-176z" />
    <glyph glyph-name="Z" unicode="Z" 
d="M287 1329h766v-108l-617 -1053h533q35 0 59.5 -24.5t24.5 -59.5q0 -34 -25 -59t-59 -25h-764v111l616 1048h-534q-34 0 -58 25.5t-24 60.5q0 34 24 59t58 25z" />
    <glyph glyph-name="bracketleft" unicode="[" 
d="M631 170h338q35 0 59.5 -24.5t24.5 -59.5t-24.5 -59.5t-59.5 -24.5h-678q-34 0 -59 25t-25 59v1159q0 36 24.5 61t59.5 25h678q34 0 59 -25t25 -59q0 -35 -24.5 -60.5t-59.5 -25.5h-338v-991zM463 170v991h-88v-991h88z" />
    <glyph glyph-name="backslash" unicode="\" 
d="M932 25l-682 1159q-21 38 -21 68q0 35 28 56.5t61 21.5q37 0 53 -27l680 -1158q22 -36 22 -66q0 -35 -28 -57.5t-61 -22.5q-36 0 -52 26z" />
    <glyph glyph-name="bracketright" unicode="]" 
d="M627 1161h-336q-36 0 -61 24.5t-25 59.5q0 34 25.5 59t60.5 25h676q35 0 60.5 -24.5t25.5 -59.5v-1159q0 -35 -25 -59.5t-59 -24.5h-678q-35 0 -59.5 25.5t-24.5 60.5q0 34 24.5 58t59.5 24h336v991zM797 1161v-991h88v991h-88z" />
    <glyph glyph-name="asciicircum" unicode="^" 
d="M239 356l332 635q26 49 76 49t76 -49l331 -635q17 -30 17 -56q0 -31 -24.5 -55.5t-58.5 -24.5q-46 0 -71 36l-270 403l-269 -403q-26 -36 -72 -36q-34 0 -58.5 24t-24.5 55q0 27 16 57z" />
    <glyph glyph-name="underscore" unicode="_" 
d="M1247 -256h-1257v170h1257v-170z" />
    <glyph glyph-name="grave" unicode="`" 
d="M815 1180q47 -24 47 -76q0 -33 -23 -59.5t-59 -26.5q-19 0 -37 8l-305 141q-47 24 -47 76q0 33 23 59.5t59 26.5q19 0 37 -8z" />
    <glyph glyph-name="a" unicode="a" 
d="M457 606h329q27 0 78 -12l-2 119q0 35 -24.5 59.5t-59.5 24.5h-319q-34 0 -59 25t-25 59q0 35 24.5 59.5t59.5 24.5h319q104 0 177.5 -73t76.5 -179l21 -629q0 -35 -25 -59.5t-59 -24.5q-36 0 -61 24.5t-25 59.5l-142 -84h-284q-106 0 -180 74t-74 180v98
q0 105 74.5 179.5t179.5 74.5zM877 279l-5 71q-1 36 -25 60t-59 24h-331q-35 0 -59.5 -24.5t-24.5 -59.5v-94q0 -34 25 -59t59 -25h237z" />
    <glyph glyph-name="b" unicode="b" 
d="M379 1245v-395l74 59q70 58 145 58h154q85 0 151 -58l80 -69q33 -29 54.5 -83t21.5 -106v-340q0 -46 -20 -97t-46 -75l-73 -69q-28 -27 -80 -48.5t-88 -21.5h-144q-105 0 -229 117v-33q0 -35 -24.5 -59.5t-59.5 -24.5t-59.5 24.5t-24.5 59.5v1161q0 35 25 59.5t59 24.5
q35 0 59.5 -24.5t24.5 -59.5zM739 797h-116q-42 0 -64 -19l-151 -129q-29 -26 -29 -78v-190q0 -42 33 -70l135 -114q29 -27 61 -27h137q29 0 50 18l67 60q27 20 27 57v354q0 42 -27 64l-61 51q-28 23 -62 23z" />
    <glyph glyph-name="c" unicode="c" 
d="M971 0h-359q-95 0 -162 57l-163 142q-78 65 -78 176v219q-4 107 88 186l147 127q71 58 152 58h377q35 0 59.5 -24.5t24.5 -59.5q0 -36 -24.5 -60t-59.5 -24h-361q-34 0 -65 -27l-135 -115q-33 -28 -33 -75v-205q0 -33 26 -56l148 -126q28 -25 74 -25h344q34 0 59 -24.5
t25 -59.5t-24.5 -59.5t-59.5 -24.5z" />
    <glyph glyph-name="d" unicode="d" 
d="M883 848v397q0 35 24 59.5t58 24.5q35 0 60.5 -24.5t25.5 -59.5v-1161q0 -35 -25 -59.5t-59 -24.5q-36 0 -60 24.5t-24 59.5v37q-123 -121 -230 -121h-143q-86 0 -172 74l-70 59q-24 23 -45.5 77t-21.5 101v342q0 57 24 110.5t56 80.5l69 59q74 64 174 64h121
q99 0 180 -70zM639 797h-117q-37 0 -67 -27l-54 -47q-28 -25 -28 -64v-356q0 -35 33 -63l55 -47q26 -23 55 -23h137q27 0 64 31l133 110q33 29 33 72v182q0 61 -35 90l-137 117q-27 25 -72 25z" />
    <glyph glyph-name="e" unicode="e" 
d="M1053 649v-203q0 -34 -25 -59t-59 -25h-594v-49q0 -43 37 -73l49 -41q40 -31 76 -31h432q34 0 59 -24.5t25 -59.5q0 -34 -25.5 -59t-58.5 -25h-443q-44 0 -92.5 18.5t-71.5 38.5l-75 66q-35 28 -58.5 78t-23.5 92v385q0 33 25.5 89t64.5 87l70 55q69 56 153 56h236
q89 0 168 -74l63 -60q68 -61 68 -182zM377 662v-130h510v117q0 47 -29 72l-49 43q-38 31 -68 31h-211q-39 0 -71 -27l-49 -41q-33 -25 -33 -65z" />
    <glyph glyph-name="f" unicode="f" 
d="M590 797v-713q0 -35 -25 -59.5t-59 -24.5q-36 0 -61 24.5t-25 59.5v713h-86q-35 0 -59.5 25t-24.5 59q0 33 22.5 58.5t61.5 25.5h88v65q0 129 88.5 214t220.5 85h197q35 0 59.5 -25t24.5 -61q0 -34 -25 -59t-59 -25h-197q-60 0 -99.5 -36t-39.5 -93v-65h168q34 1 59 -24
t25 -60q0 -34 -25 -59t-59 -25h-170z" />
    <glyph glyph-name="g" unicode="g" 
d="M735 -360h-364q-35 0 -59.5 24t-24.5 60q0 35 24.5 59t59.5 24h364q33 0 62 25l57 49q29 22 29 58v256q-118 -119 -230 -119h-129q-100 0 -180 69l-63 56q-31 26 -53.5 76t-22.5 98v278q0 59 22.5 112t53.5 79l69 59q74 64 174 64h121q99 0 180 -70l58 -49l-2 33
q0 34 25 59t59 25q35 0 60.5 -24.5t25.5 -59.5v-942q0 -107 -86 -183l-68 -59q-26 -23 -73.5 -40t-88.5 -17zM639 799h-113q-37 0 -71 -29l-52 -43q-30 -25 -30 -68v-280q0 -34 33 -64l55 -49q26 -22 55 -22h137q30 0 66 30l133 113q31 27 31 66v127q0 46 -35 75l-137 117
q-29 27 -72 27z" />
    <glyph glyph-name="h" unicode="h" 
d="M205 84v1161q0 34 24.5 58t59.5 24t59.5 -24.5t24.5 -59.5v-424l135 88q92 58 164 58h104q103 0 177 -73.5t77 -178.5l21 -629q1 -35 -24 -59.5t-60 -24.5t-59 25.5t-25 58.5l-21 631q-1 34 -26 59t-60 25h-94q-32 0 -70 -25l-239 -156v-534q0 -35 -24.5 -59.5
t-59.5 -24.5t-59.5 24.5t-24.5 59.5z" />
    <glyph glyph-name="i" unicode="i" 
d="M543 1403h88q35 0 59.5 -24.5t24.5 -59.5v-72q0 -35 -24.5 -60.5t-59.5 -25.5h-90q-36 0 -60.5 26t-23.5 58l2 74q0 35 24.5 59.5t59.5 24.5zM885 2h-512q-35 0 -59.5 24.5t-24.5 59.5q0 34 24.5 59t59.5 25h172v627h-170q-35 0 -59.5 25t-24.5 59q0 35 24.5 60.5
t59.5 25.5h256q35 0 59.5 -25.5t24.5 -60.5v-711h168q35 0 60.5 -24.5t25.5 -59.5t-25 -59.5t-59 -24.5z" />
    <glyph glyph-name="j" unicode="j" 
d="M799 1399h90q33 0 58.5 -25.5t25.5 -58.5v-74q0 -34 -24.5 -59t-59.5 -25h-90q-35 0 -59.5 24.5t-24.5 59.5v74q1 34 26 59t58 25zM719 -360h-178q-102 0 -178 73.5t-76 157.5q0 30 25 55t61 25q38 0 53.5 -17t29 -53t31.5 -55t62 -19h168q35 0 59.5 24.5t24.5 59.5v906
h-256q-35 0 -59.5 24t-24.5 60q0 34 24.5 59t59.5 25h342q35 0 59.5 -25.5t24.5 -60.5v-988q0 -103 -74 -177t-178 -74z" />
    <glyph glyph-name="k" unicode="k" 
d="M207 84v1159q0 36 24.5 61t59.5 25t59.5 -25t24.5 -61v-686l452 385q29 24 63 24q36 0 60 -25.5t24 -60.5q0 -37 -26 -59l-352 -299l434 -381q26 -21 26 -55q0 -33 -24 -59.5t-59 -26.5t-62 23l-448 389l-88 -74v-254q0 -35 -24.5 -59.5t-59.5 -24.5t-59.5 24.5
t-24.5 59.5z" />
    <glyph glyph-name="l" unicode="l" 
d="M885 0h-508q-35 0 -59.5 25.5t-24.5 60.5q0 34 24.5 59t59.5 25h168v991h-170q-35 0 -59.5 24.5t-24.5 59.5t24.5 59.5t59.5 24.5h256q34 0 59 -25t25 -59v-1075h170q34 0 59 -25t25 -59q0 -35 -24.5 -60.5t-59.5 -25.5z" />
    <glyph glyph-name="m" unicode="m" 
d="M186 84v797q0 35 24.5 59.5t59.5 24.5q65 0 82 -64q70 66 156 66q101 0 166 -86q80 86 176 86q78 0 135.5 -55.5t61.5 -141.5l24 -686q0 -34 -25 -59t-59 -25q-35 0 -60 25t-26 59l-20 659q-2 54 -33 54q-17 0 -35 -15l-100 -84v-614q0 -34 -24.5 -58t-59.5 -24
q-34 0 -59 24.5t-25 59.5v668q0 43 -37 43q-18 0 -33 -13l-121 -102v-598q0 -34 -24 -59t-58 -25q-35 0 -60.5 25t-25.5 59z" />
    <glyph glyph-name="n" unicode="n" 
d="M604 770l-229 -149v-537q0 -34 -25 -59t-59 -25t-59 25t-25 59v797q0 35 24.5 60.5t59.5 25.5q34 0 59 -25.5t25 -60.5v-56l153 93q77 49 174 49h78q100 0 173 -71t77 -175l23 -637q1 -34 -24 -59t-60 -25q-33 0 -58 22.5t-26 61.5l-25 627q-3 88 -92 88h-82
q-38 0 -82 -29z" />
    <glyph glyph-name="o" unicode="o" 
d="M1053 662v-355q0 -113 -106.5 -209t-219.5 -96h-197q-115 0 -220 97.5t-105 207.5v355q0 110 102.5 207.5t222.5 97.5h197q113 2 219.5 -94t106.5 -211zM375 655v-340q0 -46 33 -73l63 -54q21 -18 59 -18h195q43 0 78 31l51 45q31 24 31 67v340q0 50 -31 74l-59 47
q-30 25 -70 25h-174q-57 0 -88 -27l-57 -49q-31 -26 -31 -68z" />
    <glyph glyph-name="p" unicode="p" 
d="M377 96v-372q0 -36 -24.5 -61t-59.5 -25t-60.5 25t-25.5 61v1198q0 34 25 59t61 25q34 0 59 -25t25 -59v-54q122 136 241 136h39q89 0 164 -66l140 -121q92 -80 92 -203v-262q0 -124 -99 -209l-137 -118q-68 -62 -172 -62h-37q-98 0 -166 68zM614 133h43q31 0 66 31
l131 115q33 26 33 71v271q0 40 -37 71l-141 121q-24 21 -52 21h-49q-28 0 -73 -46l-125 -124q-33 -33 -33 -74v-215q0 -39 37 -76l121 -121q45 -45 79 -45z" />
    <glyph glyph-name="q" unicode="q" 
d="M885 -274v395l-64 -53q-83 -68 -176 -68h-113q-99 0 -167 57l-78 66q-35 29 -57.5 80.5t-22.5 99.5v350q0 121 74 185l61 53q83 76 188 76h123q106 0 232 -119v35q0 35 24.5 59.5t59.5 24.5t59.5 -24.5t24.5 -59.5v-1157q0 -36 -24.5 -61t-59.5 -25t-59.5 25t-24.5 61z
M524 170h117q44 0 66 18l151 129q27 24 27 78v193q0 34 -35 65l-127 113q-31 31 -68 31h-137q-28 0 -49 -19l-63 -55q-31 -27 -31 -61v-355q0 -34 35 -65l55 -49q28 -23 59 -23z" />
    <glyph glyph-name="r" unicode="r" 
d="M207 84v797q0 35 24.5 60.5t59.5 25.5t59.5 -25t24.5 -61v-105l137 117q85 72 166 72h123q104 0 178 -74t74 -178v-45q0 -36 -24.5 -61t-59.5 -25t-59.5 24.5t-24.5 59.5v47q0 35 -24.5 59.5t-59.5 24.5h-109q-35 0 -78 -37l-239 -207v-469q0 -35 -25 -59.5t-59 -24.5
q-35 0 -59.5 24.5t-24.5 59.5z" />
    <glyph glyph-name="s" unicode="s" 
d="M442 965h385q90 0 159 -53.5t69 -104.5q0 -36 -25.5 -59t-56.5 -23q-40 0 -73 36t-69 36h-380q-56 0 -56 -47q0 -33 37 -50l447 -198q68 -30 111.5 -96.5t43.5 -147.5q0 -108 -76.5 -183t-173.5 -75h-340q-88 0 -163.5 53t-75.5 103q0 33 24.5 58.5t63.5 25.5
q32 0 68.5 -36t105.5 -36h313q37 0 62 28.5t25 65.5q0 57 -56 82l-451 203q-65 29 -100 84t-35 112q0 90 62.5 156t154.5 66z" />
    <glyph glyph-name="t" unicode="t" 
d="M797 0h-168q-104 0 -179 74t-75 178v545h-86q-35 0 -59.5 24t-24.5 60q0 35 24.5 59.5t59.5 24.5h88v206q0 35 24.5 59.5t59.5 24.5q33 0 58.5 -25t25.5 -59v-206h338q34 0 59 -25t25 -59q0 -35 -25 -59.5t-59 -24.5h-340v-545q0 -34 25.5 -59t60.5 -25h164q67 0 89 72.5
t85 72.5q37 0 60.5 -24.5t23.5 -61.5q0 -76 -71.5 -151.5t-182.5 -75.5z" />
    <glyph glyph-name="u" unicode="u" 
d="M606 170l283 180v531q0 35 24.5 60.5t59.5 25.5t59.5 -25.5t24.5 -60.5v-797q0 -34 -25 -59t-59 -25t-59 25t-25 59v66l-146 -95q-86 -55 -174 -55h-78q-103 0 -177 72t-79 176l-24 633q-2 33 23.5 58.5t60.5 25.5q34 0 58.5 -25t25.5 -59l22 -621q3 -90 103 -90h102z
" />
    <glyph glyph-name="v" unicode="v" 
d="M1053 881v-160l-291 -662q-28 -59 -74 -59h-108q-59 0 -86 61l-289 658v162q0 35 24.5 59.5t59.5 24.5t59.5 -24.5t24.5 -59.5v-129l256 -576l254 578v127q0 35 25 59.5t61 24.5q35 0 59.5 -24.5t24.5 -59.5z" />
    <glyph glyph-name="w" unicode="w" 
d="M714 592v-201l112 -192l58 192l18 490q2 34 26.5 59t57.5 25q35 0 60 -24.5t24 -59.5l-18 -523l-90 -297q-19 -61 -78 -61h-90q-47 0 -74 47l-92 158l-92 -156q-31 -49 -74 -49h-88q-29 0 -52.5 17t-29.5 40l-88 308l-19 516q-1 33 25 58.5t61 25.5q32 0 56.5 -23.5
t25.5 -60.5l19 -492l55 -188l117 196v195q0 35 25 59.5t61 24.5q34 0 59 -24.5t25 -59.5z" />
    <glyph glyph-name="x" unicode="x" 
d="M645 362l-275 -327q-27 -35 -67 -35q-36 0 -60 25t-24 61q0 32 16 51l301 361l-278 331q-19 22 -19 50q0 33 23.5 59.5t60.5 26.5q42 0 68 -31l254 -305l260 307q24 29 60 29q32 0 58 -22.5t26 -57.5q0 -34 -11 -47l-283 -342l297 -359q17 -19 17 -47q0 -38 -25.5 -63.5
t-58.5 -25.5q-39 0 -68 34z" />
    <glyph glyph-name="y" unicode="y" 
d="M1055 719l-453 -1024q-23 -55 -80 -55h-233q-35 0 -59.5 24t-24.5 60q0 35 24.5 59t59.5 24h180l115 267h-41q-57 0 -82 59l-252 586v162q0 35 24 59.5t58 24.5q35 0 60.5 -24.5t25.5 -59.5v-125l221 -512h59l228 510v129q0 33 25.5 58.5t60.5 25.5q34 0 59 -25t25 -59
v-164z" />
    <glyph glyph-name="z" unicode="z" 
d="M1055 881v-68q0 -40 -29 -68l-596 -577h539q35 0 59.5 -24.5t24.5 -59.5t-24.5 -59.5t-59.5 -24.5h-676q-36 0 -61 24.5t-25 59.5v72q0 36 45 80l584 561h-504q-35 0 -59.5 25t-24.5 61q0 33 25 58.5t59 25.5h639q35 0 59.5 -25.5t24.5 -60.5z" />
    <glyph glyph-name="braceleft" unicode="{" 
d="M715 1161v-327q0 -104 -68 -168q68 -62 68 -168v-328h256q35 0 59.5 -24.5t24.5 -59.5q0 -34 -25 -59t-59 -25h-256q-69 0 -118.5 51t-49.5 117v322q0 35 -26 62.5t-60 27.5h-168q-35 0 -59.5 24t-24.5 60q0 35 24.5 59.5t59.5 24.5h168q34 0 60 27t26 63v323
q0 65 50 115.5t118 50.5h256q35 0 59.5 -24.5t24.5 -59.5t-24.5 -59.5t-59.5 -24.5h-256z" />
    <glyph glyph-name="bar" unicode="|" 
d="M705 86q0 -35 -25.5 -60.5t-61.5 -25.5q-34 0 -58.5 25.5t-24.5 60.5v1161q0 35 25 58.5t61 23.5q34 0 59 -23.5t25 -58.5v-1161z" />
    <glyph glyph-name="braceright" unicode="}" 
d="M549 170v328q0 103 67 168q-67 61 -67 165v330h-256q-35 0 -59.5 24.5t-24.5 59.5q0 34 24.5 59t59.5 25h256q68 0 118 -51t50 -117v-323q0 -35 25.5 -61.5t60.5 -26.5h168q35 0 59.5 -24.5t24.5 -59.5q0 -36 -24.5 -61t-59.5 -25h-168q-36 0 -61 -26.5t-25 -61.5v-324
q0 -64 -50.5 -115t-117.5 -51h-256q-35 0 -59.5 24.5t-24.5 59.5t24.5 59.5t59.5 24.5h256z" />
    <glyph glyph-name="asciitilde" unicode="~" 
d="M1061 608l-152 -92q-28 -14 -45 -14h-53q-8 0 -27 6l-256 86h-24l-127 -78q-23 -14 -47 -14q-34 0 -59 27t-25 61q0 44 41 69l151 93q19 12 45 12h54q14 0 26 -4l262 -88h15l131 80q23 14 46 14q35 0 60 -27t25 -62q0 -44 -41 -69z" />
    <glyph glyph-name="Adieresis" unicode="&#xc4;" 
d="M208 117l340 1149q20 63 84 63q62 0 78 -53l335 -1167q4 -13 4 -25q0 -35 -24 -59.5t-55 -24.5q-66 0 -84 61l-68 228h-383l-74 -244q-3 -16 -25 -30.5t-48 -14.5q-37 0 -61 25t-24 61q0 15 5 31zM630 940l-144 -481h283zM1050 1466q0 -35 -24.5 -59.5t-59.5 -24.5
q-36 0 -60 24.5t-24 59.5v143q0 36 24.5 61t59.5 25q34 0 59 -25t25 -61v-143zM372 1466q0 -35 -24.5 -59.5t-59.5 -24.5t-59.5 24.5t-24.5 59.5v143q0 35 24.5 59.5t59.5 24.5t59.5 -24.5t24.5 -59.5v-143z" />
    <glyph glyph-name="Aring" unicode="&#xc5;" 
d="M212 117l340 1149q20 63 84 63q62 0 78 -53l335 -1167q4 -13 4 -25q0 -35 -24 -59.5t-55 -24.5q-66 0 -84 61l-68 228h-383l-74 -244q-3 -16 -25 -30.5t-48 -14.5q-37 0 -61 25t-24 61q0 15 5 31zM634 940l-144 -481h283zM816 1529q0 -56 -53.5 -104.5t-110.5 -48.5h-57
q-57 0 -109.5 48t-52.5 105v74q0 57 51.5 105.5t110.5 48.5h57q58 0 111 -49t53 -105v-74zM705 1542v49q0 19 -24.5 37t-34.5 18h-37q-19 0 -42 -19.5t-23 -33.5v-51q0 -20 12 -29l24 -19q9 -8 23 -8h43q18 0 47 31q12 4 12 25z" />
    <glyph glyph-name="Ccedilla" unicode="&#xc7;" 
d="M715 0h-58q-60 0 -124 38t-89 85l-194 375q-39 81 -39 166q0 94 37 163l196 371q28 52 87 91.5t114 39.5h332q35 0 59.5 -25t24.5 -59q0 -35 -24.5 -60.5t-59.5 -25.5h-320q-40 0 -65 -47l-186 -348q-22 -41 -22 -97q0 -59 24 -104l178 -342q25 -53 82 -53h303
q35 0 60.5 -24.5t25.5 -59.5t-25.5 -59.5t-60.5 -24.5h-88v-274q0 -36 -24.5 -61t-59.5 -25h-340q-34 0 -59 25t-25 59q0 35 24.5 60.5t59.5 25.5h256v190z" />
    <glyph glyph-name="Eacute" unicode="&#xc9;" 
d="M969 1159h-594v-409h256q34 0 59 -25t25 -59q0 -36 -24.5 -61t-59.5 -25h-256v-412h596q34 0 59 -24.5t25 -59.5t-25.5 -59.5t-60.5 -24.5h-762v1329h762q35 0 60.5 -25.5t25.5 -60.5q0 -34 -25.5 -59t-60.5 -25zM735 1685q18 8 37 8q36 0 59 -26.5t23 -59.5
q0 -54 -47 -76l-305 -141q-18 -8 -37 -8q-36 0 -59 26.5t-23 59.5q0 54 47 76z" />
    <glyph glyph-name="Ntilde" unicode="&#xd1;" 
d="M1055 1243v-1243h-226l-452 1032v-948q0 -35 -24.5 -59.5t-59.5 -24.5t-59.5 24.5t-24.5 59.5v1245h223l453 -1030v944q0 35 25.5 60.5t60.5 25.5t59.5 -25t24.5 -61zM1022 1536l-152 -92q-28 -14 -45 -14h-53q-8 0 -27 6l-256 86h-24l-127 -78q-23 -14 -47 -14
q-34 0 -59 27t-25 62q0 44 41 69l151 92q19 12 45 12h54q14 0 26 -4l262 -88h15l131 80q23 14 46 14q35 0 60 -27t25 -62q0 -44 -41 -69z" />
    <glyph glyph-name="Odieresis" unicode="&#xd6;" 
d="M829 1206l185 -377q39 -77 39 -167q0 -88 -39 -166l-185 -373q-59 -123 -200 -123q-67 0 -120.5 35t-80.5 88l-186 373q-37 73 -37 166t37 167l186 377q63 123 201 123q140 0 200 -123zM573 1122l-174 -354q-24 -53 -24 -104q0 -55 24 -105l179 -358q14 -33 51 -33
q32 0 49 33l180 358q25 53 25 105q0 55 -25 104l-176 354q-17 39 -53 39t-56 -39zM1049 1466q0 -35 -24.5 -59.5t-59.5 -24.5q-36 0 -60 24.5t-24 59.5v143q0 36 24.5 61t59.5 25q34 0 59 -25t25 -61v-143zM371 1466q0 -35 -24.5 -59.5t-59.5 -24.5t-59.5 24.5t-24.5 59.5
v143q0 35 24.5 59.5t59.5 24.5t59.5 -24.5t24.5 -59.5v-143z" />
    <glyph glyph-name="Udieresis" unicode="&#xdc;" 
d="M205 252v991q0 35 25 60.5t59 25.5t59 -25t25 -59v-993q0 -33 25 -57.5t59 -24.5h344q35 0 59.5 24t24.5 58v991q0 36 24.5 61t59.5 25t59.5 -25t24.5 -61v-989q0 -104 -74.5 -179t-177.5 -75h-344q-104 0 -178 74t-74 178zM1049 1466q0 -35 -24.5 -59.5t-59.5 -24.5
q-36 0 -60 24.5t-24 59.5v143q0 36 24.5 61t59.5 25q34 0 59 -25t25 -61v-143zM371 1466q0 -35 -24.5 -59.5t-59.5 -24.5t-59.5 24.5t-24.5 59.5v143q0 35 24.5 59.5t59.5 24.5t59.5 -24.5t24.5 -59.5v-143z" />
    <glyph glyph-name="aacute" unicode="&#xe1;" 
d="M457 606h329q27 0 78 -12l-2 119q0 35 -24.5 59.5t-59.5 24.5h-319q-34 0 -59 25t-25 59q0 35 24.5 59.5t59.5 24.5h319q104 0 177.5 -73t76.5 -179l21 -629q0 -35 -25 -59.5t-59 -24.5q-36 0 -61 24.5t-25 59.5l-142 -84h-284q-106 0 -180 74t-74 180v98
q0 105 74.5 179.5t179.5 74.5zM877 279l-5 71q-1 36 -25 60t-59 24h-331q-35 0 -59.5 -24.5t-24.5 -59.5v-94q0 -34 25 -59t59 -25h237zM735 1321q18 8 37 8q36 0 59 -26.5t23 -59.5q0 -54 -47 -76l-305 -141q-18 -8 -37 -8q-36 0 -59 26.5t-23 59.5q0 54 47 76z" />
    <glyph glyph-name="agrave" unicode="&#xe0;" 
d="M457 606h329q27 0 78 -12l-2 119q0 35 -24.5 59.5t-59.5 24.5h-319q-34 0 -59 25t-25 59q0 35 24.5 59.5t59.5 24.5h319q104 0 177.5 -73t76.5 -179l21 -629q0 -35 -25 -59.5t-59 -24.5q-36 0 -61 24.5t-25 59.5l-142 -84h-284q-106 0 -180 74t-74 180v98
q0 105 74.5 179.5t179.5 74.5zM877 279l-5 71q-1 36 -25 60t-59 24h-331q-35 0 -59.5 -24.5t-24.5 -59.5v-94q0 -34 25 -59t59 -25h237zM807 1180q47 -24 47 -76q0 -33 -23 -59.5t-59 -26.5q-19 0 -37 8l-305 141q-47 24 -47 76q0 33 23 59.5t59 26.5q19 0 37 -8z" />
    <glyph glyph-name="acircumflex" unicode="&#xe2;" 
d="M457 606h329q27 0 78 -12l-2 119q0 35 -24.5 59.5t-59.5 24.5h-319q-34 0 -59 25t-25 59q0 35 24.5 59.5t59.5 24.5h319q104 0 177.5 -73t76.5 -179l21 -629q0 -35 -25 -59.5t-59 -24.5q-36 0 -61 24.5t-25 59.5l-142 -84h-284q-106 0 -180 74t-74 180v98
q0 105 74.5 179.5t179.5 74.5zM877 279l-5 71q-1 36 -25 60t-59 24h-331q-35 0 -59.5 -24.5t-24.5 -59.5v-94q0 -34 25 -59t59 -25h237zM618 1151l-270 -125q-17 -8 -36 -8q-36 0 -59.5 26.5t-23.5 59.5q0 54 47 76l306 141q20 8 36 8q20 0 37 -8l306 -141q47 -24 47 -76
q0 -33 -23.5 -59.5t-59.5 -26.5q-18 0 -36 8z" />
    <glyph glyph-name="adieresis" unicode="&#xe4;" 
d="M457 606h329q27 0 78 -12l-2 119q0 35 -24.5 59.5t-59.5 24.5h-319q-34 0 -59 25t-25 59q0 35 24.5 59.5t59.5 24.5h319q104 0 177.5 -73t76.5 -179l21 -629q0 -35 -25 -59.5t-59 -24.5q-36 0 -61 24.5t-25 59.5l-142 -84h-284q-106 0 -180 74t-74 180v98
q0 105 74.5 179.5t179.5 74.5zM877 279l-5 71q-1 36 -25 60t-59 24h-331q-35 0 -59.5 -24.5t-24.5 -59.5v-94q0 -34 25 -59t59 -25h237zM1049 1102q0 -35 -24.5 -59.5t-59.5 -24.5q-36 0 -60 24.5t-24 59.5v143q0 36 24.5 61t59.5 25q34 0 59 -25t25 -61v-143zM371 1102
q0 -35 -24.5 -59.5t-59.5 -24.5t-59.5 24.5t-24.5 59.5v143q0 35 24.5 59.5t59.5 24.5t59.5 -24.5t24.5 -59.5v-143z" />
    <glyph glyph-name="atilde" unicode="&#xe3;" 
d="M457 606h329q27 0 78 -12l-2 119q0 35 -24.5 59.5t-59.5 24.5h-319q-34 0 -59 25t-25 59q0 35 24.5 59.5t59.5 24.5h319q104 0 177.5 -73t76.5 -179l21 -629q0 -35 -25 -59.5t-59 -24.5q-36 0 -61 24.5t-25 59.5l-142 -84h-284q-106 0 -180 74t-74 180v98
q0 105 74.5 179.5t179.5 74.5zM877 279l-5 71q-1 36 -25 60t-59 24h-331q-35 0 -59.5 -24.5t-24.5 -59.5v-94q0 -34 25 -59t59 -25h237zM1020 1171l-152 -92q-28 -14 -45 -14h-53q-8 0 -27 6l-256 86h-24l-127 -78q-23 -14 -47 -14q-34 0 -59 27t-25 62q0 44 41 69l151 92
q19 12 45 12h54q14 0 26 -4l262 -88h15l131 80q23 14 46 14q35 0 60 -27t25 -62q0 -44 -41 -69z" />
    <glyph glyph-name="aring" unicode="&#xe5;" 
d="M457 606h329q27 0 78 -12l-2 119q0 35 -24.5 59.5t-59.5 24.5h-319q-34 0 -59 25t-25 59q0 35 24.5 59.5t59.5 24.5h319q104 0 177.5 -73t76.5 -179l21 -629q0 -35 -25 -59.5t-59 -24.5q-36 0 -61 24.5t-25 59.5l-142 -84h-284q-106 0 -180 74t-74 180v98
q0 105 74.5 179.5t179.5 74.5zM877 279l-5 71q-1 36 -25 60t-59 24h-331q-35 0 -59.5 -24.5t-24.5 -59.5v-94q0 -34 25 -59t59 -25h237zM811 1165q0 -56 -53.5 -104.5t-110.5 -48.5h-57q-57 0 -109.5 48t-52.5 105v74q0 57 51.5 105.5t110.5 48.5h57q58 0 111 -49t53 -105
v-74zM700 1178v49q0 19 -24.5 37t-34.5 18h-37q-19 0 -42 -19.5t-23 -33.5v-51q0 -20 12 -29l24 -19q9 -8 23 -8h43q18 0 47 31q12 4 12 25z" />
    <glyph glyph-name="ccedilla" unicode="&#xe7;" 
d="M719 0h-107q-95 0 -162 57l-163 142q-78 65 -78 176v219q-4 107 88 186l147 127q71 58 152 58h377q35 0 59.5 -24.5t24.5 -59.5q0 -36 -24.5 -60t-59.5 -24h-361q-34 0 -65 -27l-135 -115q-33 -28 -33 -75v-205q0 -33 26 -56l148 -126q28 -25 74 -25h344q34 0 59 -24.5
t25 -59.5t-24.5 -59.5t-59.5 -24.5h-84v-274q0 -36 -24.5 -61t-59.5 -25h-340q-34 0 -59 25t-25 59q0 35 24.5 60.5t59.5 25.5h256v190z" />
    <glyph glyph-name="eacute" unicode="&#xe9;" 
d="M1053 649v-203q0 -34 -25 -59t-59 -25h-594v-49q0 -43 37 -73l49 -41q40 -31 76 -31h432q34 0 59 -24.5t25 -59.5q0 -34 -25.5 -59t-58.5 -25h-443q-44 0 -92.5 18.5t-71.5 38.5l-75 66q-35 28 -58.5 78t-23.5 92v385q0 33 25.5 89t64.5 87l70 55q69 56 153 56h236
q89 0 168 -74l63 -60q68 -61 68 -182zM377 662v-130h510v117q0 47 -29 72l-49 43q-38 31 -68 31h-211q-39 0 -71 -27l-49 -41q-33 -25 -33 -65zM858 1321q18 8 37 8q36 0 59 -26.5t23 -59.5q0 -54 -47 -76l-305 -141q-18 -8 -37 -8q-36 0 -59 26.5t-23 59.5q0 54 47 76z" />
    <glyph glyph-name="egrave" unicode="&#xe8;" 
d="M1053 649v-203q0 -34 -25 -59t-59 -25h-594v-49q0 -43 37 -73l49 -41q40 -31 76 -31h432q34 0 59 -24.5t25 -59.5q0 -34 -25.5 -59t-58.5 -25h-443q-44 0 -92.5 18.5t-71.5 38.5l-75 66q-35 28 -58.5 78t-23.5 92v385q0 33 25.5 89t64.5 87l70 55q69 56 153 56h236
q89 0 168 -74l63 -60q68 -61 68 -182zM377 662v-130h510v117q0 47 -29 72l-49 43q-38 31 -68 31h-211q-39 0 -71 -27l-49 -41q-33 -25 -33 -65zM807 1180q47 -24 47 -76q0 -33 -23 -59.5t-59 -26.5q-19 0 -37 8l-305 141q-47 24 -47 76q0 33 23 59.5t59 26.5q19 0 37 -8z
" />
    <glyph glyph-name="ecircumflex" unicode="&#xea;" 
d="M1053 649v-203q0 -34 -25 -59t-59 -25h-594v-49q0 -43 37 -73l49 -41q40 -31 76 -31h432q34 0 59 -24.5t25 -59.5q0 -34 -25.5 -59t-58.5 -25h-443q-44 0 -92.5 18.5t-71.5 38.5l-75 66q-35 28 -58.5 78t-23.5 92v385q0 33 25.5 89t64.5 87l70 55q69 56 153 56h236
q89 0 168 -74l63 -60q68 -61 68 -182zM377 662v-130h510v117q0 47 -29 72l-49 43q-38 31 -68 31h-211q-39 0 -71 -27l-49 -41q-33 -25 -33 -65zM618 1151l-270 -125q-17 -8 -36 -8q-36 0 -59.5 26.5t-23.5 59.5q0 54 47 76l306 141q20 8 36 8q20 0 37 -8l306 -141
q47 -24 47 -76q0 -33 -23.5 -59.5t-59.5 -26.5q-18 0 -36 8z" />
    <glyph glyph-name="edieresis" unicode="&#xeb;" 
d="M1053 649v-203q0 -34 -25 -59t-59 -25h-594v-49q0 -43 37 -73l49 -41q40 -31 76 -31h432q34 0 59 -24.5t25 -59.5q0 -34 -25.5 -59t-58.5 -25h-443q-44 0 -92.5 18.5t-71.5 38.5l-75 66q-35 28 -58.5 78t-23.5 92v385q0 33 25.5 89t64.5 87l70 55q69 56 153 56h236
q89 0 168 -74l63 -60q68 -61 68 -182zM377 662v-130h510v117q0 47 -29 72l-49 43q-38 31 -68 31h-211q-39 0 -71 -27l-49 -41q-33 -25 -33 -65zM1049 1102q0 -35 -24.5 -59.5t-59.5 -24.5q-36 0 -60 24.5t-24 59.5v143q0 36 24.5 61t59.5 25q34 0 59 -25t25 -61v-143z
M371 1102q0 -35 -24.5 -59.5t-59.5 -24.5t-59.5 24.5t-24.5 59.5v143q0 35 24.5 59.5t59.5 24.5t59.5 -24.5t24.5 -59.5v-143z" />
    <glyph glyph-name="iacute" unicode="&#xed;" 
d="M715 170h168q35 0 60.5 -24.5t25.5 -59.5t-25 -59.5t-59 -24.5h-512q-35 0 -59.5 24.5t-24.5 59.5q0 34 24.5 59t59.5 25h172v627h-170q-35 0 -59.5 25t-24.5 59q0 35 24.5 60.5t59.5 25.5h256q35 0 59.5 -25.5t24.5 -60.5v-711zM858 1321q18 8 37 8q36 0 59 -26.5
t23 -59.5q0 -54 -47 -76l-305 -141q-18 -8 -37 -8q-36 0 -59 26.5t-23 59.5q0 54 47 76z" />
    <glyph glyph-name="igrave" unicode="&#xec;" 
d="M723 170h168q35 0 60.5 -24.5t25.5 -59.5t-25 -59.5t-59 -24.5h-512q-35 0 -59.5 24.5t-24.5 59.5q0 34 24.5 59t59.5 25h172v627h-170q-35 0 -59.5 25t-24.5 59q0 35 24.5 60.5t59.5 25.5h256q35 0 59.5 -25.5t24.5 -60.5v-711zM692 1180q47 -24 47 -76q0 -33 -23 -59.5
t-59 -26.5q-19 0 -37 8l-305 141q-47 24 -47 76q0 33 23 59.5t59 26.5q19 0 37 -8z" />
    <glyph glyph-name="icircumflex" unicode="&#xee;" 
d="M723 170h168q35 0 60.5 -24.5t25.5 -59.5t-25 -59.5t-59 -24.5h-512q-35 0 -59.5 24.5t-24.5 59.5q0 34 24.5 59t59.5 25h172v627h-170q-35 0 -59.5 25t-24.5 59q0 35 24.5 60.5t59.5 25.5h256q35 0 59.5 -25.5t24.5 -60.5v-711zM534 1151l-270 -125q-17 -8 -36 -8
q-36 0 -59.5 26.5t-23.5 59.5q0 54 47 76l306 141q20 8 36 8q20 0 37 -8l306 -141q47 -24 47 -76q0 -33 -23.5 -59.5t-59.5 -26.5q-18 0 -36 8z" />
    <glyph glyph-name="idieresis" unicode="&#xef;" 
d="M715 170h168q35 0 60.5 -24.5t25.5 -59.5t-25 -59.5t-59 -24.5h-512q-35 0 -59.5 24.5t-24.5 59.5q0 34 24.5 59t59.5 25h172v627h-170q-35 0 -59.5 25t-24.5 59q0 35 24.5 60.5t59.5 25.5h256q35 0 59.5 -25.5t24.5 -60.5v-711zM946 1102q0 -35 -24.5 -59.5t-59.5 -24.5
q-36 0 -60 24.5t-24 59.5v143q0 36 24.5 61t59.5 25q34 0 59 -25t25 -61v-143zM268 1102q0 -35 -24.5 -59.5t-59.5 -24.5t-59.5 24.5t-24.5 59.5v143q0 35 24.5 59.5t59.5 24.5t59.5 -24.5t24.5 -59.5v-143z" />
    <glyph glyph-name="ntilde" unicode="&#xf1;" 
d="M606 770l-229 -149v-537q0 -34 -25 -59t-59 -25t-59 25t-25 59v797q0 35 24.5 60.5t59.5 25.5q34 0 59 -25.5t25 -60.5v-56l153 93q77 49 174 49h78q100 0 173 -71t77 -175l23 -637q1 -34 -24 -59t-60 -25q-33 0 -58 22.5t-26 61.5l-25 627q-3 88 -92 88h-82
q-38 0 -82 -29zM1022 1171l-152 -92q-28 -14 -45 -14h-53q-8 0 -27 6l-256 86h-24l-127 -78q-23 -14 -47 -14q-34 0 -59 27t-25 62q0 44 41 69l151 92q19 12 45 12h54q14 0 26 -4l262 -88h15l131 80q23 14 46 14q35 0 60 -27t25 -62q0 -44 -41 -69z" />
    <glyph glyph-name="oacute" unicode="&#xf3;" 
d="M1053 662v-355q0 -113 -106.5 -209t-219.5 -96h-197q-115 0 -220 97.5t-105 207.5v355q0 110 102.5 207.5t222.5 97.5h197q113 2 219.5 -94t106.5 -211zM375 655v-340q0 -46 33 -73l63 -54q21 -18 59 -18h195q43 0 78 31l51 45q31 24 31 67v340q0 50 -31 74l-59 47
q-30 25 -70 25h-174q-57 0 -88 -27l-57 -49q-31 -26 -31 -68zM858 1321q18 8 37 8q36 0 59 -26.5t23 -59.5q0 -54 -47 -76l-305 -141q-18 -8 -37 -8q-36 0 -59 26.5t-23 59.5q0 54 47 76z" />
    <glyph glyph-name="ograve" unicode="&#xf2;" 
d="M1053 662v-355q0 -113 -106.5 -209t-219.5 -96h-197q-115 0 -220 97.5t-105 207.5v355q0 110 102.5 207.5t222.5 97.5h197q113 2 219.5 -94t106.5 -211zM375 655v-340q0 -46 33 -73l63 -54q21 -18 59 -18h195q43 0 78 31l51 45q31 24 31 67v340q0 50 -31 74l-59 47
q-30 25 -70 25h-174q-57 0 -88 -27l-57 -49q-31 -26 -31 -68zM807 1180q47 -24 47 -76q0 -33 -23 -59.5t-59 -26.5q-19 0 -37 8l-305 141q-47 24 -47 76q0 33 23 59.5t59 26.5q19 0 37 -8z" />
    <glyph glyph-name="ocircumflex" unicode="&#xf4;" 
d="M1053 662v-355q0 -113 -106.5 -209t-219.5 -96h-197q-115 0 -220 97.5t-105 207.5v355q0 110 102.5 207.5t222.5 97.5h197q113 2 219.5 -94t106.5 -211zM375 655v-340q0 -46 33 -73l63 -54q21 -18 59 -18h195q43 0 78 31l51 45q31 24 31 67v340q0 50 -31 74l-59 47
q-30 25 -70 25h-174q-57 0 -88 -27l-57 -49q-31 -26 -31 -68zM618 1151l-270 -125q-17 -8 -36 -8q-36 0 -59.5 26.5t-23.5 59.5q0 54 47 76l306 141q20 8 36 8q20 0 37 -8l306 -141q47 -24 47 -76q0 -33 -23.5 -59.5t-59.5 -26.5q-18 0 -36 8z" />
    <glyph glyph-name="odieresis" unicode="&#xf6;" 
d="M1053 662v-355q0 -113 -106.5 -209t-219.5 -96h-197q-115 0 -220 97.5t-105 207.5v355q0 110 102.5 207.5t222.5 97.5h197q113 2 219.5 -94t106.5 -211zM375 655v-340q0 -46 33 -73l63 -54q21 -18 59 -18h195q43 0 78 31l51 45q31 24 31 67v340q0 50 -31 74l-59 47
q-30 25 -70 25h-174q-57 0 -88 -27l-57 -49q-31 -26 -31 -68zM1049 1102q0 -35 -24.5 -59.5t-59.5 -24.5q-36 0 -60 24.5t-24 59.5v143q0 36 24.5 61t59.5 25q34 0 59 -25t25 -61v-143zM371 1102q0 -35 -24.5 -59.5t-59.5 -24.5t-59.5 24.5t-24.5 59.5v143q0 35 24.5 59.5
t59.5 24.5t59.5 -24.5t24.5 -59.5v-143z" />
    <glyph glyph-name="otilde" unicode="&#xf5;" 
d="M1053 662v-355q0 -113 -106.5 -209t-219.5 -96h-197q-115 0 -220 97.5t-105 207.5v355q0 110 102.5 207.5t222.5 97.5h197q113 2 219.5 -94t106.5 -211zM375 655v-340q0 -46 33 -73l63 -54q21 -18 59 -18h195q43 0 78 31l51 45q31 24 31 67v340q0 50 -31 74l-59 47
q-30 25 -70 25h-174q-57 0 -88 -27l-57 -49q-31 -26 -31 -68zM1020 1171l-152 -92q-28 -14 -45 -14h-53q-8 0 -27 6l-256 86h-24l-127 -78q-23 -14 -47 -14q-34 0 -59 27t-25 62q0 44 41 69l151 92q19 12 45 12h54q14 0 26 -4l262 -88h15l131 80q23 14 46 14q35 0 60 -27
t25 -62q0 -44 -41 -69z" />
    <glyph glyph-name="uacute" unicode="&#xfa;" 
d="M606 170l283 180v531q0 35 24.5 60.5t59.5 25.5t59.5 -25.5t24.5 -60.5v-797q0 -34 -25 -59t-59 -25t-59 25t-25 59v66l-146 -95q-86 -55 -174 -55h-78q-103 0 -177 72t-79 176l-24 633q-2 33 23.5 58.5t60.5 25.5q34 0 58.5 -25t25.5 -59l22 -621q3 -90 103 -90h102z
M860 1321q18 8 37 8q36 0 59 -26.5t23 -59.5q0 -54 -47 -76l-305 -141q-18 -8 -37 -8q-36 0 -59 26.5t-23 59.5q0 54 47 76z" />
    <glyph glyph-name="ugrave" unicode="&#xf9;" 
d="M606 170l283 180v531q0 35 24.5 60.5t59.5 25.5t59.5 -25.5t24.5 -60.5v-797q0 -34 -25 -59t-59 -25t-59 25t-25 59v66l-146 -95q-86 -55 -174 -55h-78q-103 0 -177 72t-79 176l-24 633q-2 33 23.5 58.5t60.5 25.5q34 0 58.5 -25t25.5 -59l22 -621q3 -90 103 -90h102z
M809 1180q47 -24 47 -76q0 -33 -23 -59.5t-59 -26.5q-19 0 -37 8l-305 141q-47 24 -47 76q0 33 23 59.5t59 26.5q19 0 37 -8z" />
    <glyph glyph-name="ucircumflex" unicode="&#xfb;" 
d="M606 170l283 180v531q0 35 24.5 60.5t59.5 25.5t59.5 -25.5t24.5 -60.5v-797q0 -34 -25 -59t-59 -25t-59 25t-25 59v66l-146 -95q-86 -55 -174 -55h-78q-103 0 -177 72t-79 176l-24 633q-2 33 23.5 58.5t60.5 25.5q34 0 58.5 -25t25.5 -59l22 -621q3 -90 103 -90h102z
M620 1151l-270 -125q-17 -8 -36 -8q-36 0 -59.5 26.5t-23.5 59.5q0 54 47 76l306 141q20 8 36 8q20 0 37 -8l306 -141q47 -24 47 -76q0 -33 -23.5 -59.5t-59.5 -26.5q-18 0 -36 8z" />
    <glyph glyph-name="udieresis" unicode="&#xfc;" 
d="M604 170l283 180v531q0 35 24.5 60.5t59.5 25.5t59.5 -25.5t24.5 -60.5v-797q0 -34 -25 -59t-59 -25t-59 25t-25 59v66l-146 -95q-86 -55 -174 -55h-78q-103 0 -177 72t-79 176l-24 633q-2 33 23.5 58.5t60.5 25.5q34 0 58.5 -25t25.5 -59l22 -621q3 -90 103 -90h102z
M1049 1102q0 -35 -24.5 -59.5t-59.5 -24.5q-36 0 -60 24.5t-24 59.5v143q0 36 24.5 61t59.5 25q34 0 59 -25t25 -61v-143zM371 1102q0 -35 -24.5 -59.5t-59.5 -24.5t-59.5 24.5t-24.5 59.5v143q0 35 24.5 59.5t59.5 24.5t59.5 -24.5t24.5 -59.5v-143z" />
    <glyph glyph-name="dagger" unicode="&#x2020;" 
d="M705 989h256q35 0 60.5 -24.5t25.5 -59.5t-25.5 -59.5t-60.5 -24.5h-256v-735q0 -35 -25.5 -60.5t-61.5 -25.5q-34 0 -58.5 25.5t-24.5 60.5v735h-259q-34 0 -58.5 25t-24.5 59q0 35 24.5 59.5t58.5 24.5h259v258q0 35 25 58.5t61 23.5q34 0 59 -23.5t25 -58.5v-258z" />
    <glyph glyph-name="degree" unicode="&#xb0;" 
d="M1012 874q0 -112 -106.5 -208.5t-219.5 -96.5h-115q-115 0 -220 97.5t-105 207.5v150q0 113 104 209t221 96h115q115 0 220.5 -95t105.5 -210v-150zM844 881v135q0 49 -31 74l-59 47q-30 24 -70 24h-92q-57 0 -88 -26l-58 -50q-30 -25 -30 -67v-135q0 -47 33 -74l63 -53
q21 -19 59 -19h113q43 0 78 31l51 45q31 24 31 68z" />
    <glyph glyph-name="cent" unicode="&#xa2;" 
d="M717 965h256q35 0 59.5 -24.5t24.5 -59.5q0 -36 -24.5 -60t-59.5 -24h-361q-34 0 -65 -27l-135 -115q-33 -28 -33 -75v-205q0 -33 26 -56l148 -126q28 -25 74 -25h344q34 0 59 -24.5t25 -59.5t-24.5 -59.5t-59.5 -24.5h-254v-203q0 -35 -25.5 -60.5t-60.5 -25.5
t-59.5 25.5t-24.5 60.5v211q-57 15 -97 49l-163 142q-78 65 -78 176v219q-4 107 88 186l147 127q49 40 103 51v213q0 35 25 58.5t61 23.5q34 0 59 -23.5t25 -58.5v-206z" />
    <glyph glyph-name="sterling" unicode="&#xa3;" 
d="M963 2h-680q-34 0 -59 25t-25 59q0 35 24 59.5t60 24.5h106l123 414h-227q-35 0 -59.5 25t-24.5 61q0 34 24.5 59t59.5 25h276l113 376q60 201 270 201q109 0 109 -84q0 -34 -24.5 -60t-59.5 -26h-43q-67 0 -88 -71l-101 -338h226q35 0 60.5 -24.5t25.5 -59.5
q0 -34 -25.5 -59t-58.5 -25h-277l-121 -414h396q35 0 60.5 -24.5t25.5 -59.5q0 -34 -25.5 -59t-60.5 -25z" />
    <glyph glyph-name="section" unicode="&#xa7;" 
d="M408 846l-148 166q-53 66 -53 129q0 76 55.5 132t134.5 56h437q80 0 151.5 -67.5t71.5 -163.5q0 -36 -25.5 -61t-56.5 -25q-43 0 -59 19.5t-30.5 73.5t-64.5 54h-405q-29 0 -29 -18q0 -15 12 -29l602 -676q54 -59 54 -127q0 -74 -53.5 -130t-120.5 -56h-31l151 -170
q54 -59 54 -127q0 -75 -53.5 -130.5t-120.5 -55.5h-453q-90 0 -156.5 69t-66.5 152q0 94 88 94q34 0 58 -24.5t24 -57.5q0 -27 18.5 -45t46.5 -18h408q26 0 26 20q0 13 -12 27l-602 671q-53 67 -53 129q0 77 55.5 133t134.5 56h11zM698 293h150q26 0 26 20q0 13 -12 27
l-301 336h-145q-29 0 -29 -19q0 -14 12 -28z" />
    <glyph glyph-name="bullet" unicode="&#x2022;" 
d="M961 502q0 -70 -50.5 -121t-117.5 -51h-349q-66 0 -114.5 50t-48.5 118v295q0 69 50 120.5t118 51.5h339q71 0 122 -51t51 -121v-291z" />
    <glyph glyph-name="paragraph" unicode="&#xb6;" 
d="M1034 84q0 -35 -25 -59.5t-61 -24.5q-35 0 -59.5 24.5t-24.5 59.5v1075h-170v-1075q0 -35 -25 -59.5t-61 -24.5q-35 0 -59.5 24.5t-24.5 59.5v424h-86q-104 0 -178 74t-74 178v315q0 104 74.5 179t177.5 75h596v-1245z" />
    <glyph glyph-name="germandbls" unicode="&#xdf;" 
d="M920 504q81 -73 107 -128.5t26 -117.5q0 -108 -77 -183t-173 -75h-53q-89 0 -164.5 53t-75.5 103q0 33 25 58.5t63 25.5q32 0 68.5 -36t105.5 -36h27q37 0 60 28t23 68q0 51 -32 80l-197 180q-80 74 -101.5 102.5t-21.5 73.5q0 81 101 134l162 84q59 31 75.5 46t16.5 45
q0 56 -31 81l-59 47q-30 24 -70 24h-174q-57 0 -88 -26l-57 -50q-31 -25 -31 -67v-934q0 -34 -25 -59t-59 -25t-60 25.5t-26 58.5v942q0 101 59.5 161.5t117 101t148.5 40.5h197q113 2 219.5 -94t106.5 -211q0 -90 -38.5 -131.5t-140.5 -93.5l-100 -51q-66 -34 -66 -49
q0 -6 35 -37z" />
    <glyph glyph-name="registered" unicode="&#xae;" 
d="M1067 303q0 -106 -99.5 -204.5t-228.5 -98.5h-241q-129 0 -228.5 98.5t-99.5 204.5v723q0 106 99.5 204.5t228.5 98.5h241q129 0 228.5 -98.5t99.5 -204.5v-723zM981 307v715q0 80 -46.5 128t-76.5 70.5t-123 22.5h-233q-101 0 -135 -29.5t-72.5 -73.5t-38.5 -118v-715
q0 -79 46.5 -127.5t76.5 -71t123 -22.5h233q101 0 135 29.5t72.5 73.5t38.5 118zM367 1073h286q104 0 178 -75t74 -179q0 -198 -180 -241l135 -187q23 -31 23 -67q0 -29 -19.5 -48.5t-48.5 -19.5q-39 0 -72 45l-190 266h-37v-237q0 -32 -21.5 -53t-54.5 -21q-32 0 -52.5 21
t-20.5 53v743zM514 715h139q105 0 105 104q0 48 -29.5 77.5t-75.5 29.5h-139v-211z" />
    <glyph glyph-name="copyright" unicode="&#xa9;" 
d="M1067 303q0 -106 -99.5 -204.5t-228.5 -98.5h-241q-129 0 -228.5 98.5t-99.5 204.5v723q0 106 99.5 204.5t228.5 98.5h241q129 0 228.5 -98.5t99.5 -204.5v-723zM981 307v715q0 80 -46.5 128t-76.5 70.5t-123 22.5h-233q-101 0 -135 -29.5t-72.5 -73.5t-38.5 -118v-715
q0 -79 46.5 -127.5t76.5 -71t123 -22.5h233q101 0 135 29.5t72.5 73.5t38.5 118zM797 924h-168q-15 0 -35 -37l-98 -182q-7 -10 -7 -39q0 -26 11 -45l94 -179q19 -34 35 -34h166q38 0 61 -22t23 -53q0 -32 -23 -53.5t-61 -21.5h-154q-47 0 -100.5 30.5t-77.5 76.5l-98 186
q-25 69 -25 115q0 73 27 122l96 179q21 43 72 74.5t100 31.5h162q38 0 61 -21.5t23 -53.5q0 -31 -23 -52.5t-61 -21.5z" />
    <glyph glyph-name="trademark" unicode="&#x2122;" 
d="M574 1186h-133v-398q0 -32 -21 -52t-51 -20t-51 20t-21 52v398h-133q-33 0 -52.5 20.5t-19.5 50.5q0 31 19.5 51.5t52.5 20.5h410q33 0 52.5 -20.5t19.5 -51.5q0 -30 -19.5 -50.5t-52.5 -20.5zM1248 788q0 -32 -21 -52t-51 -20t-51 20t-21 52v318l-90 -68
q-20 -15 -43 -15q-22 0 -43 15l-90 68v-318q0 -32 -21 -52t-51 -20t-50.5 20t-20.5 52v461q0 80 58 80q27 0 56 -22l162 -121l162 121q30 22 57 22q58 0 58 -80v-461z" />
    <glyph glyph-name="acute" unicode="&#xb4;" 
d="M743 1321q18 8 37 8q36 0 59 -26.5t23 -59.5q0 -54 -47 -76l-305 -141q-18 -8 -37 -8q-36 0 -59 26.5t-23 59.5q0 54 47 76z" />
    <glyph glyph-name="dieresis" unicode="&#xa8;" 
d="M1049 1102q0 -35 -24.5 -59.5t-59.5 -24.5q-36 0 -60 24.5t-24 59.5v143q0 36 24.5 61t59.5 25q34 0 59 -25t25 -61v-143zM371 1102q0 -35 -24.5 -59.5t-59.5 -24.5t-59.5 24.5t-24.5 59.5v143q0 35 24.5 59.5t59.5 24.5t59.5 -24.5t24.5 -59.5v-143z" />
    <glyph glyph-name="notequal" unicode="&#x2260;" 
d="M680 606h287q34 0 59 -25t25 -59q0 -35 -24.5 -60.5t-59.5 -25.5h-349l-86 -235q-18 -55 -78 -55q-35 0 -60.5 24.5t-25.5 60.5q0 15 5 27l65 178h-151q-34 0 -59 25.5t-25 60.5t25 59.5t59 24.5h213l69 193h-282q-34 0 -59 25t-25 59t25 59t59 25h344l88 239
q21 55 78 55q32 0 59.5 -24.5t27.5 -61.5q0 -14 -5 -28l-66 -180h154q35 0 59.5 -24.5t24.5 -59.5t-24.5 -59.5t-59.5 -24.5h-215z" />
    <glyph glyph-name="AE" unicode="&#xc6;" 
d="M978 2h-254q-36 0 -61 24.5t-25 59.5v205h-174l-80 -223q-26 -66 -86 -66q-35 0 -60 24t-25 60q0 17 7 35l422 1145q23 63 90 63h248q35 0 59.5 -24.5t24.5 -59.5t-24.5 -59.5t-59.5 -24.5h-170v-411h170q35 0 59.5 -24.5t24.5 -59.5q0 -36 -24.5 -60t-59.5 -24h-172
v-412h170q35 0 60.5 -24.5t25.5 -59.5q0 -34 -25.5 -59t-60.5 -25zM527 461h111v303z" />
    <glyph glyph-name="Oslash" unicode="&#xd8;" 
d="M263 840l188 374q26 53 80.5 85t118.5 32q56 0 114.5 -34.5t88.5 -104.5l57 94q27 45 74 45q36 0 60 -25.5t24 -55.5q0 -28 -19 -60l-106 -180l92 -185q35 -71 35 -163q0 -87 -33 -152l-195 -385q-30 -61 -82.5 -92t-107.5 -31q-70 0 -129 37.5t-84 103.5l-57 -98
q-25 -42 -73 -42q-32 0 -59 24.5t-27 59.5q0 28 17 56l107 181l-82 168q-42 84 -42 177q0 92 40 171zM595 1122l-183 -364q-20 -43 -20 -86q0 -74 59 -170l301 512l-55 112q-18 37 -49 37q-33 0 -53 -41zM838 831l-297 -512l51 -106q20 -40 56 -40q30 0 49 38l184 362
q20 39 20 83q0 79 -63 175z" />
    <glyph glyph-name="infinity" unicode="&#x221e;" 
d="M1059 307q0 -55 -60 -116.5t-118 -61.5h-150l-113 125l-112 -125h-150q-57 0 -116.5 60t-59.5 118v144q0 60 59.5 118t116.5 58h152l110 -121l111 121h152q58 0 118 -59.5t60 -116.5v-144zM889 307v144q0 6 -8 6h-76l-70 -78l72 -80h74q8 0 8 8zM504 379l-72 78h-76
q-6 0 -6 -6v-144q0 -8 6 -8h74z" />
    <glyph glyph-name="plusminus" unicode="&#xb1;" 
d="M702 752h259q35 0 60.5 -24.5t25.5 -59.5t-25.5 -59.5t-60.5 -24.5h-256v-258q0 -36 -25.5 -61t-61.5 -25q-34 0 -58.5 25t-24.5 61v258h-259q-34 0 -58.5 24.5t-24.5 59.5q0 34 24.5 59t58.5 25h259v258q0 34 25 58t61 24q34 0 57.5 -24t23.5 -58v-258zM961 168
q35 0 60.5 -24.5t25.5 -59.5t-25.5 -59.5t-60.5 -24.5h-685q-34 0 -58.5 24.5t-24.5 59.5t24.5 59.5t58.5 24.5h685z" />
    <glyph glyph-name="lessequal" unicode="&#x2264;" 
d="M401 809l619 -365q37 -23 37 -70q0 -37 -25.5 -61.5t-57.5 -24.5q-25 0 -54 17l-662 391q-51 29 -51 80v66q0 49 51 80l662 391q27 17 54 17q32 0 57.5 -25t25.5 -61q0 -46 -37 -68zM975 168q35 0 60.5 -24.5t25.5 -59.5t-25.5 -59.5t-60.5 -24.5h-684q-34 0 -59 24.5
t-25 59.5t25 59.5t59 24.5h684z" />
    <glyph glyph-name="greaterequal" unicode="&#x2265;" 
d="M1055 776q0 -51 -49 -80l-662 -391q-29 -17 -55 -17q-32 0 -57.5 23.5t-25.5 60.5q0 48 38 70l618 367l-618 365q-38 23 -38 71q0 38 25.5 61.5t57.5 23.5q25 0 55 -17l662 -391q49 -29 49 -80v-66zM971 168q34 0 59 -24.5t25 -59.5t-25 -59.5t-59 -24.5h-684
q-36 0 -61 24.5t-25 59.5t25 59.5t61 24.5h684z" />
    <glyph glyph-name="yen" unicode="&#xa5;" 
d="M713 606h262q35 0 60.5 -25t25.5 -59q0 -35 -25.5 -60.5t-60.5 -25.5h-262v-348q0 -35 -24.5 -59.5t-59.5 -24.5t-59.5 24.5t-24.5 59.5v348h-258q-34 0 -59 25.5t-25 60.5t25 59.5t59 24.5h258v39l-322 547q-18 32 -18 59q0 31 25 56t60 25q49 0 70 -36l271 -458
l268 452q22 39 71 39q40 0 62.5 -27t22.5 -62q0 -19 -8 -34l-334 -557v-43z" />
    <glyph glyph-name="uni00B5" unicode="&#xb5;" 
d="M1058 84q0 -34 -25 -59t-59 -25t-59 25t-25 59v66l-146 -95q-86 -55 -174 -55h-102q-44 0 -90 16v-292q0 -36 -24.5 -60t-59.5 -24q-37 0 -60.5 28.5t-23.5 55.5v1157q-3 33 22.5 58.5t61.5 25.5q37 0 60.5 -28.5t23.5 -55.5v-621q3 -90 102 -90h127l283 180v531
q0 35 24.5 60.5t59.5 25.5t59.5 -25.5t24.5 -60.5v-797z" />
    <glyph glyph-name="partialdiff" unicode="&#x2202;" 
d="M1053 307q0 -113 -106.5 -209t-219.5 -96h-197q-115 0 -220 97.5t-105 207.5v355q0 110 102.5 207.5t222.5 97.5h84l-219 219q-24 24 -24 59t24.5 59.5t59.5 24.5q34 0 59 -24l471 -471q68 -68 68 -172v-355zM885 313v340q0 50 -31 74l-59 47q-30 25 -70 25h-174
q-57 0 -88 -27l-57 -49q-31 -26 -31 -68v-340q0 -46 33 -73l63 -54q21 -18 59 -18h195q43 0 78 31l51 45q31 24 31 67z" />
    <glyph glyph-name="summation" unicode="&#x2211;" 
d="M410 168h561q34 0 59 -24.5t25 -59.5t-25.5 -59.5t-60.5 -24.5h-762v168l338 498l-338 493v170h762q35 0 60.5 -25.5t25.5 -60.5q0 -34 -25.5 -59t-60.5 -25h-559l278 -409q39 -52 39 -84q0 -29 -39 -86z" />
    <glyph glyph-name="product" unicode="&#x220f;" 
d="M205 1161h-86q-34 0 -59 25t-25 59q0 35 25 59.5t59 24.5h1018q35 0 60.5 -24.5t25.5 -59.5t-25.5 -59.5t-60.5 -24.5h-84v-1075q0 -35 -25.5 -60.5t-60.5 -25.5t-59.5 25.5t-24.5 60.5v1075h-508v-1075q0 -35 -25.5 -60.5t-60.5 -25.5t-59.5 25.5t-24.5 60.5v1075z" />
    <glyph glyph-name="pi" unicode="&#x3c0;" 
d="M246 797h-86q-34 0 -59 24.5t-25 59.5q0 34 25 59t59 25h936q35 0 60.5 -24.5t25.5 -59.5t-25.5 -59.5t-60.5 -24.5h-84v-711q0 -35 -25.5 -60.5t-60.5 -25.5t-59.5 25.5t-24.5 60.5v711h-426v-711q0 -35 -25.5 -60.5t-60.5 -25.5t-59.5 25.5t-24.5 60.5v711z" />
    <glyph glyph-name="integral" unicode="&#x222b;" 
d="M1049 977q0 -35 -24.5 -59.5t-59.5 -24.5q-36 0 -60 24.5t-24 59.5v180h-168v-1517h-506v350q0 35 24.5 59.5t59.5 24.5t59.5 -24.5t24.5 -59.5v-180h168v1519h506v-352z" />
    <glyph glyph-name="ordfeminine" unicode="&#xaa;" 
d="M457 970h329q27 0 78 -12l-2 119q0 35 -24.5 59.5t-59.5 24.5h-319q-34 0 -59 25t-25 59q0 35 24.5 59.5t59.5 24.5h319q104 0 177.5 -73t76.5 -179l21 -629q0 -35 -25 -59.5t-59 -24.5q-36 0 -61 24.5t-25 59.5l-142 -84h-284q-106 0 -180 74t-74 180v98
q0 105 74.5 179.5t179.5 74.5zM877 643l-5 71q-1 36 -25 60t-59 24h-331q-35 0 -59.5 -24.5t-24.5 -59.5v-94q0 -34 25 -59t59 -25h237z" />
    <glyph glyph-name="ordmasculine" unicode="&#xba;" 
d="M1053 1026v-355q0 -113 -106.5 -209t-219.5 -96h-197q-115 0 -220 97.5t-105 207.5v355q0 110 102.5 207.5t222.5 97.5h197q113 2 219.5 -94t106.5 -211zM375 1019v-340q0 -46 33 -73l63 -54q21 -18 59 -18h195q43 0 78 31l51 45q31 24 31 67v340q0 50 -31 74l-59 47
q-30 25 -70 25h-174q-57 0 -88 -27l-57 -49q-31 -26 -31 -68z" />
    <glyph glyph-name="uni2126" unicode="&#x2126;" 
d="M893 168h76q34 0 59 -24.5t25 -59.5t-25.5 -59.5t-60.5 -24.5h-248v168q0 22 16 63l123 308q25 65 25 125v352q0 51 -29 74l-59 47q-30 24 -70 24h-174q-57 0 -88 -26l-57 -50q-31 -25 -31 -67v-354q0 -64 24 -125l123 -308q17 -30 17 -63v-168h-248q-36 0 -61 24.5
t-25 59.5t25 59.5t59 24.5h76l-123 307q-37 89 -37 187v362q0 112 103.5 208.5t221.5 96.5h197q95 0 157.5 -46t115.5 -103.5t53 -155.5v-362q0 -88 -39 -187z" />
    <glyph glyph-name="ae" unicode="&#xe6;" 
d="M694 362v-49q0 -43 37 -73l49 -41q40 -31 76 -31h221q34 0 59 -24.5t25 -59.5q0 -34 -25 -59t-59 -25h-231q-45 0 -93 18.5t-71 38.5l-74 64l-205 -121h-73q-106 0 -180 74t-74 180v98q0 105 74.5 179.5t179.5 74.5h119q25 0 75 -12v119q0 35 -24.5 59.5t-59.5 24.5h-108
q-34 0 -59 25t-25 59q0 35 24.5 59.5t59.5 24.5h108q118 0 197 -95q105 95 201 95h24q89 0 168 -74l64 -60q67 -61 67 -182v-203q0 -34 -24.5 -59t-59.5 -25h-383zM995 532v117q0 47 -28 72l-49 43q-38 31 -68 31q-40 0 -72 -27l-49 -41q-33 -25 -33 -65v-130h299zM524 270
v119q-24 45 -73 45h-121q-35 0 -59.5 -24.5t-24.5 -59.5v-94q0 -34 25 -59t59 -25h26z" />
    <glyph glyph-name="oslash" unicode="&#xf8;" 
d="M1053 307q0 -113 -106.5 -209t-219.5 -96h-197q-37 0 -77 10l-88 -151q-25 -42 -73 -42q-32 0 -59 24t-27 60q0 27 50 114l51 85q-63 63 -82.5 110.5t-19.5 94.5v355q0 112 104 208.5t221 96.5h197q50 0 80 -11l86 146q27 44 74 44q36 0 60 -25t24 -55q0 -28 -19 -60
l-82 -140q103 -84 103 -204v-355zM715 799h-164q-57 0 -88 -27l-57 -49q-31 -26 -31 -68v-340q0 -36 20 -63zM885 313v340q0 33 -21 64l-319 -547h180q43 0 78 31l51 45q31 24 31 67z" />
    <glyph glyph-name="questiondown" unicode="&#xbf;" 
d="M778 965q35 0 59.5 -24.5t24.5 -59.5q0 -36 -24.5 -61t-59.5 -25t-59.5 25t-24.5 61q0 35 24.5 59.5t59.5 24.5zM1008 96l-516 -438q-23 -20 -56 -20q-31 0 -51 18l-172 149q-29 23 -29 64v143q0 38 23 58l485 417v105q0 34 25 59t59 25q35 0 59.5 -25t24.5 -59v-139
q0 -45 -26 -68l-480 -414v-61l84 -76l447 383q30 25 62 25q31 0 57 -23.5t26 -61.5q0 -42 -22 -61z" />
    <glyph glyph-name="exclamdown" unicode="&#xa1;" 
d="M752 807q0 -34 -25.5 -59t-60.5 -25h-80q-37 0 -61.5 27t-24.5 59v72q0 35 24.5 59.5t59.5 24.5h84q35 0 59.5 -24.5t24.5 -59.5v-74zM754 -276q2 -33 -23.5 -59.5t-60.5 -26.5h-84q-36 0 -61 25.5t-23 57.5l41 654q3 37 26.5 60.5t59.5 23.5q34 0 58 -25.5t26 -58.5z
" />
    <glyph glyph-name="logicalnot" unicode="&#xac;" 
d="M1047 328q0 -34 -25.5 -59t-58.5 -25q-36 0 -61 24.5t-25 59.5v256h-601q-35 0 -59 24t-24 60q0 35 24 59.5t59 24.5h685q35 0 60.5 -24.5t25.5 -59.5v-340z" />
    <glyph glyph-name="radical" unicode="&#x221a;" 
d="M1110 1159h-51l-354 -1085q-25 -73 -79 -73q-49 0 -79 62l-115 242h-45q-38 0 -61 24.5t-23 60.5t23 60.5t61 24.5h100q56 0 78 -47l47 -98l308 942q19 57 79 57h111q38 0 61.5 -24.5t23.5 -60.5t-23.5 -60.5t-61.5 -24.5z" />
    <glyph glyph-name="florin" unicode="&#x192;" 
d="M571 965l15 65q29 140 109.5 219.5t199.5 79.5h197q34 0 59 -25t25 -61q0 -34 -25 -59t-59 -25h-197q-111 0 -139 -129l-15 -65h172q36 0 60 -24.5t24 -59.5q0 -34 -24.5 -59t-59.5 -25h-206l-218 -1059q-22 -100 -102 -100q-72 0 -72 63q0 17 4 37l218 1059h-111
q-35 0 -59.5 25t-24.5 59q0 33 22.5 58.5t61.5 25.5h145z" />
    <glyph glyph-name="approxequal" unicode="&#x2248;" 
d="M1061 858l-152 -92q-28 -14 -45 -14h-53q-8 0 -27 6l-256 86h-24l-127 -78q-23 -14 -47 -14q-34 0 -59 27t-25 61q0 44 41 69l151 92q19 13 45 13h54q14 0 26 -4l262 -88h15l131 79q23 15 46 15q35 0 60 -27t25 -62q0 -44 -41 -69zM1061 498l-152 -92q-28 -15 -45 -15
h-53q-8 0 -27 6l-256 86h-24l-127 -77q-23 -15 -47 -15q-34 0 -59 27t-25 62q0 44 41 69l151 92q19 12 45 12h54q14 0 26 -4l262 -88h15l131 80q23 14 46 14q35 0 60 -27t25 -61q0 -44 -41 -69z" />
    <glyph glyph-name="uni2206" unicode="&#x2206;" 
d="M1057 0h-848v395l340 871q25 63 84 63q57 0 82 -63l342 -871v-395zM889 170v192l-256 650l-256 -652v-190h512z" />
    <glyph glyph-name="guillemotleft" unicode="&#xab;" 
d="M1020 305q8 -18 8 -36q0 -36 -26.5 -59.5t-59.5 -23.5q-54 0 -76 47l-141 306q-8 20 -8 36q0 20 8 37l141 306q24 47 76 47q33 0 59.5 -23.5t26.5 -59.5q0 -18 -8 -36l-125 -271zM510 305q8 -18 8 -36q0 -36 -26.5 -59.5t-59.5 -23.5q-54 0 -76 47l-141 306q-8 20 -8 36
q0 20 8 37l141 306q24 47 76 47q33 0 59.5 -23.5t26.5 -59.5q0 -18 -8 -36l-125 -271z" />
    <glyph glyph-name="guillemotright" unicode="&#xbb;" 
d="M860 575l-125 271q-8 17 -8 36q0 36 26.5 59.5t59.5 23.5q54 0 76 -47l141 -306q8 -20 8 -37q0 -19 -8 -36l-141 -306q-24 -47 -76 -47q-33 0 -59.5 23.5t-26.5 59.5q0 18 8 36zM350 575l-125 271q-8 17 -8 36q0 36 26.5 59.5t59.5 23.5q54 0 76 -47l141 -306
q8 -20 8 -37q0 -19 -8 -36l-141 -306q-24 -47 -76 -47q-33 0 -59.5 23.5t-26.5 59.5q0 18 8 36z" />
    <glyph glyph-name="ellipsis" unicode="&#x2026;" 
d="M1118 86q0 -35 -24.5 -59.5t-59.5 -24.5h-84q-35 0 -59.5 24.5t-24.5 59.5v72q2 35 27 60.5t59 25.5h80q35 0 60.5 -25t25.5 -59v-74zM745 86q0 -35 -24 -59.5t-59 -24.5h-84q-36 0 -60 24.5t-24 59.5v72q1 35 26 60.5t60 25.5h79q35 0 60.5 -25t25.5 -59v-74zM373 86
q0 -35 -24.5 -59.5t-59.5 -24.5h-84q-35 0 -59.5 24.5t-24.5 59.5v72q1 35 26 60.5t60 25.5h80q35 0 60.5 -25t25.5 -59v-74z" />
    <glyph glyph-name="uni00A0" unicode="&#xa0;" 
 />
    <glyph glyph-name="Agrave" unicode="&#xc0;" 
d="M212 117l340 1149q20 63 84 63q62 0 78 -53l335 -1167q4 -13 4 -25q0 -35 -24 -59.5t-55 -24.5q-66 0 -84 61l-68 228h-383l-74 -244q-3 -16 -25 -30.5t-48 -14.5q-37 0 -61 25t-24 61q0 15 5 31zM634 940l-144 -481h283zM812 1544q47 -24 47 -76q0 -33 -23 -59.5
t-59 -26.5q-19 0 -37 8l-305 141q-47 24 -47 76q0 33 23 59.5t59 26.5q19 0 37 -8z" />
    <glyph glyph-name="Atilde" unicode="&#xc3;" 
d="M212 117l340 1149q20 63 84 63q62 0 78 -53l335 -1167q4 -13 4 -25q0 -35 -24 -59.5t-55 -24.5q-66 0 -84 61l-68 228h-383l-74 -244q-3 -16 -25 -30.5t-48 -14.5q-37 0 -61 25t-24 61q0 15 5 31zM634 940l-144 -481h283zM1025 1536l-152 -92q-28 -14 -45 -14h-53
q-8 0 -27 6l-256 86h-24l-127 -78q-23 -14 -47 -14q-34 0 -59 27t-25 62q0 44 41 69l151 92q19 12 45 12h54q14 0 26 -4l262 -88h15l131 80q23 14 46 14q35 0 60 -27t25 -62q0 -44 -41 -69z" />
    <glyph glyph-name="Otilde" unicode="&#xd5;" 
d="M829 1206l185 -377q39 -77 39 -167q0 -88 -39 -166l-185 -373q-59 -123 -200 -123q-67 0 -120.5 35t-80.5 88l-186 373q-37 73 -37 166t37 167l186 377q63 123 201 123q140 0 200 -123zM573 1122l-174 -354q-24 -53 -24 -104q0 -55 24 -105l179 -358q14 -33 51 -33
q32 0 49 33l180 358q25 53 25 105q0 55 -25 104l-176 354q-17 39 -53 39t-56 -39zM1020 1536l-152 -92q-28 -14 -45 -14h-53q-8 0 -27 6l-256 86h-24l-127 -78q-23 -14 -47 -14q-34 0 -59 27t-25 62q0 44 41 69l151 92q19 12 45 12h54q14 0 26 -4l262 -88h15l131 80
q23 14 46 14q35 0 60 -27t25 -62q0 -44 -41 -69z" />
    <glyph glyph-name="OE" unicode="&#x152;" 
d="M801 168h170q35 0 60.5 -24.5t25.5 -59.5q0 -34 -25.5 -59t-60.5 -25h-342q-67 0 -120.5 35t-80.5 88l-186 373q-37 73 -37 166t37 167l186 377q63 123 201 123h344q35 0 59.5 -24.5t24.5 -59.5t-24.5 -59.5t-59.5 -24.5h-170v-411h170q35 0 59.5 -24.5t24.5 -59.5
q0 -36 -24.5 -60t-59.5 -24h-172v-414zM633 168v993h-4q-36 0 -56 -39l-174 -354q-24 -53 -24 -104q0 -55 24 -105l179 -358q14 -33 51 -33h4z" />
    <glyph glyph-name="oe" unicode="&#x153;" 
d="M723 362v-49q0 -40 49 -92.5t98 -52.5h207q34 0 59 -24.5t25 -59.5q0 -34 -25 -59t-59 -25h-217q-98 0 -155 55l-66 64q-77 -74 -120.5 -95.5t-104.5 -21.5h-27q-109 0 -210 100t-101 205v355q0 107 100 206t211 99h27q64 0 108 -23t117 -94q2 4 4 4l70 55q69 56 139 56
h25q74 0 153 -74l64 -60q67 -61 67 -182v-203q0 -34 -24.5 -59t-59.5 -25h-354zM555 313v340q0 43 -29 72l-47 47q-26 27 -78 27q-58 0 -106.5 -50t-48.5 -94v-340q0 -45 30 -75l50 -50q20 -20 61 -20h25q52 0 97.5 53.5t45.5 89.5zM995 532v117q0 42 -45 94t-86 52
q-42 0 -90.5 -44.5t-48.5 -88.5v-130h270z" />
    <glyph glyph-name="endash" unicode="&#x2013;" 
d="M842 752q35 0 60.5 -24.5t25.5 -59.5t-25.5 -59.5t-60.5 -24.5h-449q-34 0 -59 24.5t-25 59.5q0 34 25 59t59 25h449z" />
    <glyph glyph-name="emdash" unicode="&#x2014;" 
d="M1151 752q35 0 60.5 -24.5t25.5 -59.5t-25.5 -59.5t-60.5 -24.5h-1067q-34 0 -59 24.5t-25 59.5q0 34 25 59t59 25h1067z" />
    <glyph glyph-name="quotedblleft" unicode="&#x201c;" 
d="M907 893h86q35 0 59.5 -25.5t24.5 -60.5q0 -34 -25 -59t-59 -25h-170q-35 0 -59.5 25.5t-24.5 60.5v436q0 35 24.5 59.5t59.5 24.5t59.5 -24.5t24.5 -59.5v-352zM397 893h86q35 0 59.5 -25.5t24.5 -60.5q0 -34 -25 -59t-59 -25h-170q-35 0 -59.5 25.5t-24.5 60.5v436
q0 35 24.5 59.5t59.5 24.5q36 0 60 -24.5t24 -59.5v-352z" />
    <glyph glyph-name="quotedblright" unicode="&#x201d;" 
d="M1008 807q0 -35 -24.5 -59.5t-59.5 -24.5q-36 0 -60 24.5t-24 59.5v352h-86q-35 0 -59.5 25.5t-24.5 60.5q0 34 25 59t59 25h170q35 0 59.5 -25t24.5 -61v-436zM498 807q0 -35 -24.5 -59.5t-59.5 -24.5t-59.5 24.5t-24.5 59.5v352h-86q-35 0 -59.5 25.5t-24.5 60.5
q0 34 25 59t59 25h170q35 0 59.5 -25t24.5 -61v-436z" />
    <glyph glyph-name="quoteleft" unicode="&#x2018;" 
d="M522 893h256q35 0 59.5 -25.5t24.5 -60.5q0 -34 -25 -59t-59 -25h-340q-35 0 -59.5 25.5t-24.5 60.5v436q0 35 24.5 59.5t59.5 24.5t59.5 -24.5t24.5 -59.5v-352z" />
    <glyph glyph-name="quoteright" unicode="&#x2019;" 
d="M883 807q0 -35 -24.5 -59.5t-59.5 -24.5t-59.5 24.5t-24.5 59.5v352h-256q-35 0 -59.5 25.5t-24.5 60.5q0 34 25 59t59 25h340q35 0 59.5 -25t24.5 -61v-436z" />
    <glyph glyph-name="divide" unicode="&#xf7;" 
d="M618 1092q35 0 59.5 -25.5t24.5 -60.5q0 -34 -25 -59t-59 -25q-33 0 -58 25t-25 59q0 35 24.5 60.5t58.5 25.5zM961 752q35 0 60.5 -24.5t25.5 -59.5t-25.5 -59.5t-60.5 -24.5h-685q-34 0 -58.5 24.5t-24.5 59.5q0 34 24.5 59t58.5 25h685zM618 414q35 0 59.5 -25.5
t24.5 -60.5q0 -34 -25 -59t-59 -25q-33 0 -58 25t-25 59q0 35 24.5 60.5t58.5 25.5z" />
    <glyph glyph-name="lozenge" unicode="&#x25ca;" 
d="M1059 666l-359 -605q-37 -61 -82 -61q-47 0 -83 61l-359 603l359 604q36 61 83 61q46 0 82 -61zM864 664l-246 409l-245 -407l245 -410z" />
    <glyph glyph-name="ydieresis" unicode="&#xff;" 
d="M1055 719l-453 -1024q-23 -55 -80 -55h-233q-35 0 -59.5 24t-24.5 60q0 35 24.5 59t59.5 24h180l115 267h-41q-57 0 -82 59l-252 586v162q0 35 24 59.5t58 24.5q35 0 60.5 -24.5t25.5 -59.5v-125l221 -512h59l228 510v129q0 33 25.5 58.5t60.5 25.5q34 0 59 -25t25 -59
v-164zM1049 1102q0 -35 -24.5 -59.5t-59.5 -24.5q-36 0 -60 24.5t-24 59.5v143q0 36 24.5 61t59.5 25q34 0 59 -25t25 -61v-143zM371 1102q0 -35 -24.5 -59.5t-59.5 -24.5t-59.5 24.5t-24.5 59.5v143q0 35 24.5 59.5t59.5 24.5t59.5 -24.5t24.5 -59.5v-143z" />
    <glyph glyph-name="Ydieresis" unicode="&#x178;" 
d="M717 637v-553q0 -35 -25 -59.5t-59 -24.5q-36 0 -61 24.5t-25 59.5v553l-338 428v178q0 36 24.5 61t59.5 25t60.5 -25.5t25.5 -60.5v-115l252 -325l256 323v117q0 35 25 60.5t59 25.5q33 0 58.5 -23.5t25.5 -62.5v-176zM1049 1466q0 -35 -24.5 -59.5t-59.5 -24.5
q-36 0 -60 24.5t-24 59.5v143q0 36 24.5 61t59.5 25q34 0 59 -25t25 -61v-143zM371 1466q0 -35 -24.5 -59.5t-59.5 -24.5t-59.5 24.5t-24.5 59.5v143q0 35 24.5 59.5t59.5 24.5t59.5 -24.5t24.5 -59.5v-143z" />
    <glyph glyph-name="fraction" unicode="&#x2215;" 
d="M1238 1192l-1090 -1157q-23 -25 -52 -25q-30 0 -53 23.5t-23 52.5q0 28 21 51l1090 1157q23 25 52 25q30 0 53 -23t23 -53q0 -28 -21 -51z" />
    <glyph glyph-name="Euro" unicode="&#x20ac;" 
d="M453 439q99 -202 111.5 -225t34.5 -33t77 -10h280q37 0 61.5 -22t24.5 -64q0 -40 -25 -62.5t-61 -22.5h-301q-94 0 -154 38.5t-100 117.5l-141 283h-85q-40 0 -63.5 23t-23.5 63t23.5 63t63.5 23h22q-4 33 -4 52q0 27 4 63h-22q-40 0 -63.5 23t-23.5 63t23.5 63t63.5 23
h89l140 281q23 47 57 83.5t82.5 54.5t121.5 18h291q37 0 61.5 -22t24.5 -63q0 -40 -25 -63t-61 -23h-286q-76 0 -92.5 -25.5t-124.5 -240.5h415q41 0 64 -23t23 -63t-23 -63t-64 -23h-494q-9 -31 -9 -63q0 -22 7 -52h450q40 0 63 -23t23 -63t-23 -63t-63 -23h-369z" />
    <glyph glyph-name="guilsinglleft" unicode="&#x2039;" 
d="M764 305q8 -18 8 -36q0 -36 -26.5 -59.5t-59.5 -23.5q-54 0 -76 47l-141 306q-8 20 -8 36q0 20 8 37l141 306q24 47 76 47q33 0 59.5 -23.5t26.5 -59.5q0 -18 -8 -36l-125 -271z" />
    <glyph glyph-name="guilsinglright" unicode="&#x203a;" 
d="M604 575l-125 271q-8 17 -8 36q0 36 26.5 59.5t59.5 23.5q54 0 76 -47l141 -306q8 -20 8 -37q0 -19 -8 -36l-141 -306q-24 -47 -76 -47q-33 0 -59.5 23.5t-26.5 59.5q0 18 8 36z" />
    <glyph glyph-name="uniF001" unicode="&#xf001;" 
d="M1053 84q0 -35 -25 -59.5t-59 -24.5q-36 0 -61 24.5t-25 59.5v713h-508v-713q0 -35 -25 -59.5t-59 -24.5q-36 0 -61 24.5t-25 59.5v713h-86q-35 0 -59.5 25t-24.5 59q0 33 22.5 58.5t61.5 25.5h88v65q0 129 88.5 214t220.5 85h197q35 0 59.5 -25t24.5 -61q0 -34 -25 -59
t-59 -25h-197q-60 0 -99.5 -36t-39.5 -93v-65h592q35 0 59.5 -25.5t24.5 -60.5v-795z" />
    <glyph glyph-name="uniF002" unicode="&#xf002;" 
d="M1053 84q0 -35 -25 -59.5t-59 -24.5q-36 0 -61 24.5t-25 59.5v1075h-367q-60 0 -99.5 -36t-39.5 -93v-65h168q34 1 59 -24t25 -60q0 -34 -25 -59t-59 -25h-170v-713q0 -35 -25 -59.5t-59 -24.5q-36 0 -61 24.5t-25 59.5v713h-86q-35 0 -59.5 25t-24.5 59q0 33 22.5 58.5
t61.5 25.5h88v65q0 129 88.5 214t220.5 85h453q34 0 59 -25t25 -59v-1161z" />
    <glyph glyph-name="daggerdbl" unicode="&#x2021;" 
d="M705 508h256q35 0 60.5 -24.5t25.5 -59.5t-25.5 -59.5t-60.5 -24.5h-256v-258q0 -34 -25 -58t-59 -24q-36 0 -61 23.5t-25 58.5v258h-259q-34 0 -58.5 24.5t-24.5 59.5t24.5 59.5t58.5 24.5h259v313h-259q-34 0 -58.5 25t-24.5 59q0 35 24.5 59.5t58.5 24.5h259v258
q0 35 25 58.5t61 23.5q34 0 59 -23.5t25 -58.5v-258h256q35 0 60.5 -24.5t25.5 -59.5t-25.5 -59.5t-60.5 -24.5h-256v-313z" />
    <glyph glyph-name="periodcentered" unicode="&#x2219;" 
d="M797 737q0 -35 -24.5 -60.5t-59.5 -25.5h-172q-35 0 -59.5 25t-24.5 59v146q0 35 25 59.5t61 24.5h170q34 0 59 -25t25 -59v-144z" />
    <glyph glyph-name="quotesinglbase" unicode="&#x201a;" 
d="M883 86q0 -35 -24.5 -59.5t-59.5 -24.5t-59.5 24.5t-24.5 59.5v352h-256q-35 0 -59.5 25.5t-24.5 60.5q0 34 25 59t59 25h340q35 0 59.5 -25t24.5 -61v-436z" />
    <glyph glyph-name="quotedblbase" unicode="&#x201e;" 
d="M1008 86q0 -35 -24.5 -59.5t-59.5 -24.5q-36 0 -60 24.5t-24 59.5v352h-86q-35 0 -59.5 25.5t-24.5 60.5q0 34 25 59t59 25h170q35 0 59.5 -25t24.5 -61v-436zM498 86q0 -35 -24.5 -59.5t-59.5 -24.5t-59.5 24.5t-24.5 59.5v352h-86q-35 0 -59.5 25.5t-24.5 60.5
q0 34 25 59t59 25h170q35 0 59.5 -25t24.5 -61v-436z" />
    <glyph glyph-name="perthousand" unicode="&#x2030;" 
d="M1028 1184l-680 -764q-21 -25 -55 -25q-33 0 -60.5 24.5t-27.5 58.5q0 35 22 61l680 766q21 25 58 25q35 0 60.5 -23.5t25.5 -58.5q0 -38 -23 -64zM543 1098q0 -35 -25 -60.5t-59 -25.5h-174q-34 0 -58 25t-24 59v147q0 35 25 60.5t59 25.5h170q35 0 60.5 -25.5
t25.5 -60.5v-145zM1049 84q0 -35 -24.5 -59.5t-59.5 -24.5h-172q-35 0 -58.5 24t-23.5 60v147q0 36 24 60t60 24h170q35 0 59.5 -24t24.5 -60v-147zM541 84q0 -35 -24.5 -59.5t-59.5 -24.5h-172q-35 0 -58.5 24t-23.5 60v147q0 36 24.5 60t59.5 24h170q35 0 59.5 -24
t24.5 -60v-147z" />
    <glyph glyph-name="Acircumflex" unicode="&#xc2;" 
d="M212 117l340 1149q20 63 84 63q62 0 78 -53l335 -1167q4 -13 4 -25q0 -35 -24 -59.5t-55 -24.5q-66 0 -84 61l-68 228h-383l-74 -244q-3 -16 -25 -30.5t-48 -14.5q-37 0 -61 25t-24 61q0 15 5 31zM634 940l-144 -481h283zM623 1515l-270 -125q-17 -8 -36 -8
q-36 0 -59.5 26.5t-23.5 59.5q0 54 47 76l306 141q20 8 36 8q20 0 37 -8l306 -141q47 -24 47 -76q0 -33 -23.5 -59.5t-59.5 -26.5q-18 0 -36 8z" />
    <glyph glyph-name="Ecircumflex" unicode="&#xca;" 
d="M969 1159h-594v-409h256q34 0 59 -25t25 -59q0 -36 -24.5 -61t-59.5 -25h-256v-412h596q34 0 59 -24.5t25 -59.5t-25.5 -59.5t-60.5 -24.5h-762v1329h762q35 0 60.5 -25.5t25.5 -60.5q0 -34 -25.5 -59t-60.5 -25zM618 1515l-270 -125q-17 -8 -36 -8q-36 0 -59.5 26.5
t-23.5 59.5q0 54 47 76l306 141q20 8 36 8q20 0 37 -8l306 -141q47 -24 47 -76q0 -33 -23.5 -59.5t-59.5 -26.5q-18 0 -36 8z" />
    <glyph glyph-name="Aacute" unicode="&#xc1;" 
d="M212 117l340 1149q20 63 84 63q62 0 78 -53l335 -1167q4 -13 4 -25q0 -35 -24 -59.5t-55 -24.5q-66 0 -84 61l-68 228h-383l-74 -244q-3 -16 -25 -30.5t-48 -14.5q-37 0 -61 25t-24 61q0 15 5 31zM634 940l-144 -481h283zM740 1685q18 8 37 8q36 0 59 -26.5t23 -59.5
q0 -54 -47 -76l-305 -141q-18 -8 -37 -8q-36 0 -59 26.5t-23 59.5q0 54 47 76z" />
    <glyph glyph-name="Edieresis" unicode="&#xcb;" 
d="M969 1159h-594v-409h256q34 0 59 -25t25 -59q0 -36 -24.5 -61t-59.5 -25h-256v-412h596q34 0 59 -24.5t25 -59.5t-25.5 -59.5t-60.5 -24.5h-762v1329h762q35 0 60.5 -25.5t25.5 -60.5q0 -34 -25.5 -59t-60.5 -25zM1049 1466q0 -35 -24.5 -59.5t-59.5 -24.5
q-36 0 -60 24.5t-24 59.5v143q0 36 24.5 61t59.5 25q34 0 59 -25t25 -61v-143zM371 1466q0 -35 -24.5 -59.5t-59.5 -24.5t-59.5 24.5t-24.5 59.5v143q0 35 24.5 59.5t59.5 24.5t59.5 -24.5t24.5 -59.5v-143z" />
    <glyph glyph-name="Egrave" unicode="&#xc8;" 
d="M969 1159h-594v-409h256q34 0 59 -25t25 -59q0 -36 -24.5 -61t-59.5 -25h-256v-412h596q34 0 59 -24.5t25 -59.5t-25.5 -59.5t-60.5 -24.5h-762v1329h762q35 0 60.5 -25.5t25.5 -60.5q0 -34 -25.5 -59t-60.5 -25zM807 1544q47 -24 47 -76q0 -33 -23 -59.5t-59 -26.5
q-19 0 -37 8l-305 141q-47 24 -47 76q0 33 23 59.5t59 26.5q19 0 37 -8z" />
    <glyph glyph-name="Iacute" unicode="&#xcd;" 
d="M289 1329h680q33 0 58.5 -25t25.5 -59q0 -35 -25 -60.5t-59 -25.5h-254v-991h254q35 0 59.5 -24.5t24.5 -59.5t-25 -59.5t-59 -24.5h-680q-35 0 -59.5 24.5t-24.5 59.5t24.5 59.5t59.5 24.5h258v991h-258q-35 0 -59.5 25t-24.5 59q0 36 24.5 61t59.5 25zM735 1685
q18 8 37 8q36 0 59 -26.5t23 -59.5q0 -54 -47 -76l-305 -141q-18 -8 -37 -8q-36 0 -59 26.5t-23 59.5q0 54 47 76z" />
    <glyph glyph-name="Icircumflex" unicode="&#xce;" 
d="M289 1329h680q33 0 58.5 -25t25.5 -59q0 -35 -25 -60.5t-59 -25.5h-254v-991h254q35 0 59.5 -24.5t24.5 -59.5t-25 -59.5t-59 -24.5h-680q-35 0 -59.5 24.5t-24.5 59.5t24.5 59.5t59.5 24.5h258v991h-258q-35 0 -59.5 25t-24.5 59q0 36 24.5 61t59.5 25zM618 1515
l-270 -125q-17 -8 -36 -8q-36 0 -59.5 26.5t-23.5 59.5q0 54 47 76l306 141q20 8 36 8q20 0 37 -8l306 -141q47 -24 47 -76q0 -33 -23.5 -59.5t-59.5 -26.5q-18 0 -36 8z" />
    <glyph glyph-name="Idieresis" unicode="&#xcf;" 
d="M289 1329h680q33 0 58.5 -25t25.5 -59q0 -35 -25 -60.5t-59 -25.5h-254v-991h254q35 0 59.5 -24.5t24.5 -59.5t-25 -59.5t-59 -24.5h-680q-35 0 -59.5 24.5t-24.5 59.5t24.5 59.5t59.5 24.5h258v991h-258q-35 0 -59.5 25t-24.5 59q0 36 24.5 61t59.5 25zM1049 1466
q0 -35 -24.5 -59.5t-59.5 -24.5q-36 0 -60 24.5t-24 59.5v143q0 36 24.5 61t59.5 25q34 0 59 -25t25 -61v-143zM371 1466q0 -35 -24.5 -59.5t-59.5 -24.5t-59.5 24.5t-24.5 59.5v143q0 35 24.5 59.5t59.5 24.5t59.5 -24.5t24.5 -59.5v-143z" />
    <glyph glyph-name="Igrave" unicode="&#xcc;" 
d="M289 1329h680q33 0 58.5 -25t25.5 -59q0 -35 -25 -60.5t-59 -25.5h-254v-991h254q35 0 59.5 -24.5t24.5 -59.5t-25 -59.5t-59 -24.5h-680q-35 0 -59.5 24.5t-24.5 59.5t24.5 59.5t59.5 24.5h258v991h-258q-35 0 -59.5 25t-24.5 59q0 36 24.5 61t59.5 25zM807 1544
q47 -24 47 -76q0 -33 -23 -59.5t-59 -26.5q-19 0 -37 8l-305 141q-47 24 -47 76q0 33 23 59.5t59 26.5q19 0 37 -8z" />
    <glyph glyph-name="Oacute" unicode="&#xd3;" 
d="M829 1206l185 -377q39 -77 39 -167q0 -88 -39 -166l-185 -373q-59 -123 -200 -123q-67 0 -120.5 35t-80.5 88l-186 373q-37 73 -37 166t37 167l186 377q63 123 201 123q140 0 200 -123zM573 1122l-174 -354q-24 -53 -24 -104q0 -55 24 -105l179 -358q14 -33 51 -33
q32 0 49 33l180 358q25 53 25 105q0 55 -25 104l-176 354q-17 39 -53 39t-56 -39zM735 1685q18 8 37 8q36 0 59 -26.5t23 -59.5q0 -54 -47 -76l-305 -141q-18 -8 -37 -8q-36 0 -59 26.5t-23 59.5q0 54 47 76z" />
    <glyph glyph-name="Ocircumflex" unicode="&#xd4;" 
d="M829 1206l185 -377q39 -77 39 -167q0 -88 -39 -166l-185 -373q-59 -123 -200 -123q-67 0 -120.5 35t-80.5 88l-186 373q-37 73 -37 166t37 167l186 377q63 123 201 123q140 0 200 -123zM573 1122l-174 -354q-24 -53 -24 -104q0 -55 24 -105l179 -358q14 -33 51 -33
q32 0 49 33l180 358q25 53 25 105q0 55 -25 104l-176 354q-17 39 -53 39t-56 -39zM618 1515l-270 -125q-17 -8 -36 -8q-36 0 -59.5 26.5t-23.5 59.5q0 54 47 76l306 141q20 8 36 8q20 0 37 -8l306 -141q47 -24 47 -76q0 -33 -23.5 -59.5t-59.5 -26.5q-18 0 -36 8z" />
    <glyph glyph-name="uniF000" unicode="&#xf000;" 
d="M961 502q0 -70 -50.5 -121t-117.5 -51h-349q-66 0 -114.5 50t-48.5 118v295q0 69 50 120.5t118 51.5h339q71 0 122 -51t51 -121v-291z" />
    <glyph glyph-name="Ograve" unicode="&#xd2;" 
d="M829 1206l185 -377q39 -77 39 -167q0 -88 -39 -166l-185 -373q-59 -123 -200 -123q-67 0 -120.5 35t-80.5 88l-186 373q-37 73 -37 166t37 167l186 377q63 123 201 123q140 0 200 -123zM573 1122l-174 -354q-24 -53 -24 -104q0 -55 24 -105l179 -358q14 -33 51 -33
q32 0 49 33l180 358q25 53 25 105q0 55 -25 104l-176 354q-17 39 -53 39t-56 -39zM807 1544q47 -24 47 -76q0 -33 -23 -59.5t-59 -26.5q-19 0 -37 8l-305 141q-47 24 -47 76q0 33 23 59.5t59 26.5q19 0 37 -8z" />
    <glyph glyph-name="Uacute" unicode="&#xda;" 
d="M205 252v991q0 35 25 60.5t59 25.5t59 -25t25 -59v-993q0 -33 25 -57.5t59 -24.5h344q35 0 59.5 24t24.5 58v991q0 36 24.5 61t59.5 25t59.5 -25t24.5 -61v-989q0 -104 -74.5 -179t-177.5 -75h-344q-104 0 -178 74t-74 178zM735 1685q18 8 37 8q36 0 59 -26.5t23 -59.5
q0 -54 -47 -76l-305 -141q-18 -8 -37 -8q-36 0 -59 26.5t-23 59.5q0 54 47 76z" />
    <glyph glyph-name="Ucircumflex" unicode="&#xdb;" 
d="M205 252v991q0 35 25 60.5t59 25.5t59 -25t25 -59v-993q0 -33 25 -57.5t59 -24.5h344q35 0 59.5 24t24.5 58v991q0 36 24.5 61t59.5 25t59.5 -25t24.5 -61v-989q0 -104 -74.5 -179t-177.5 -75h-344q-104 0 -178 74t-74 178zM618 1515l-270 -125q-17 -8 -36 -8
q-36 0 -59.5 26.5t-23.5 59.5q0 54 47 76l306 141q20 8 36 8q20 0 37 -8l306 -141q47 -24 47 -76q0 -33 -23.5 -59.5t-59.5 -26.5q-18 0 -36 8z" />
    <glyph glyph-name="Ugrave" unicode="&#xd9;" 
d="M205 252v991q0 35 25 60.5t59 25.5t59 -25t25 -59v-993q0 -33 25 -57.5t59 -24.5h344q35 0 59.5 24t24.5 58v991q0 36 24.5 61t59.5 25t59.5 -25t24.5 -61v-989q0 -104 -74.5 -179t-177.5 -75h-344q-104 0 -178 74t-74 178zM807 1544q47 -24 47 -76q0 -33 -23 -59.5
t-59 -26.5q-19 0 -37 8l-305 141q-47 24 -47 76q0 33 23 59.5t59 26.5q19 0 37 -8z" />
    <glyph glyph-name="dotlessi" unicode="&#x131;" 
d="M715 170h168q35 0 60.5 -24.5t25.5 -59.5t-25 -59.5t-59 -24.5h-512q-35 0 -59.5 24.5t-24.5 59.5q0 34 24.5 59t59.5 25h172v627h-170q-35 0 -59.5 25t-24.5 59q0 35 24.5 60.5t59.5 25.5h256q35 0 59.5 -25.5t24.5 -60.5v-711z" />
    <glyph glyph-name="circumflex" unicode="&#x2c6;" 
d="M627 1151l-270 -125q-17 -8 -36 -8q-36 0 -59.5 26.5t-23.5 59.5q0 54 47 76l306 141q20 8 36 8q20 0 37 -8l306 -141q47 -24 47 -76q0 -33 -23.5 -59.5t-59.5 -26.5q-18 0 -36 8z" />
    <glyph glyph-name="tilde" unicode="&#x2dc;" 
d="M1061 1171l-152 -92q-28 -14 -45 -14h-53q-8 0 -27 6l-256 86h-24l-127 -78q-23 -14 -47 -14q-34 0 -59 27t-25 62q0 44 41 69l151 92q19 12 45 12h54q14 0 26 -4l262 -88h15l131 80q23 14 46 14q35 0 60 -27t25 -62q0 -44 -41 -69z" />
    <glyph glyph-name="macron" unicode="&#x2c9;" 
d="M889 1329q35 0 60.5 -24.5t25.5 -59.5t-25.5 -59.5t-60.5 -24.5h-520q-34 0 -59 25t-25 59q0 35 25 59.5t59 24.5h520z" />
    <glyph glyph-name="breve" unicode="&#x2d8;" 
d="M922 1329q35 0 60.5 -21.5t25.5 -50.5q0 -67 -121 -153t-269 -86q-147 0 -268 86t-121 153q0 29 25.5 50.5t60.5 21.5q41 0 66 -24q109 -117 237 -117q129 0 238 117q25 24 66 24z" />
    <glyph glyph-name="dotaccent" unicode="&#x2d9;" 
d="M702 1102q0 -35 -24 -59.5t-60 -24.5q-35 0 -59 24.5t-24 59.5v143q0 35 24 59.5t59 24.5q36 0 60 -24.5t24 -59.5v-143z" />
    <glyph glyph-name="ring" unicode="&#x2da;" 
d="M811 1165q0 -56 -53.5 -104.5t-110.5 -48.5h-57q-57 0 -109.5 48t-52.5 105v74q0 57 51.5 105.5t110.5 48.5h57q58 0 111 -49t53 -105v-74zM700 1178v49q0 19 -24.5 37t-34.5 18h-37q-19 0 -42 -19.5t-23 -33.5v-51q0 -20 12 -29l24 -19q9 -8 23 -8h43q18 0 47 31
q12 4 12 25z" />
    <glyph glyph-name="cedilla" unicode="&#xb8;" 
d="M883 -274q0 -36 -24.5 -61t-59.5 -25h-340q-34 0 -59 25t-25 59q0 35 24.5 60.5t59.5 25.5h256v190h168v-274z" />
    <glyph glyph-name="hungarumlaut" unicode="&#x2dd;" 
d="M946 1188l-148 -148q-24 -24 -59 -24t-59.5 24.5t-24.5 59.5t24 59l148 148q24 24 59 24t59.5 -24.5t24.5 -59.5t-24 -59zM606 1188l-148 -148q-24 -24 -59 -24t-59.5 24.5t-24.5 59.5t24 59l148 148q24 24 59 24t59.5 -24.5t24.5 -59.5t-24 -59z" />
    <glyph glyph-name="ogonek" unicode="&#x2db;" 
d="M522 -190h256q35 0 59.5 -25.5t24.5 -60.5q0 -34 -25 -59t-59 -25h-340q-35 0 -59.5 25t-24.5 61v274h168v-190z" />
    <glyph glyph-name="caron" unicode="&#x2c7;" 
d="M627 1196l271 125q17 8 36 8q36 0 59.5 -26.5t23.5 -59.5q0 -54 -47 -76l-306 -141q-20 -8 -37 -8q-19 0 -36 8l-306 141q-47 24 -47 76q0 33 23.5 59.5t59.5 26.5q18 0 36 -8z" />
    <glyph glyph-name="Lslash" unicode="&#x141;" 
d="M400 168h594q35 0 60.5 -24.5t25.5 -59.5t-25.5 -59.5t-60.5 -24.5h-762v295l-64 -64q-24 -24 -59 -24t-59.5 24.5t-24.5 59.5t25 59l182 182v713q0 34 25 59t59 25t59 -25t25 -59v-545l239 240q25 25 60 25q34 0 59 -25t25 -59q0 -35 -25 -60l-358 -358v-295z" />
    <glyph glyph-name="lslash" unicode="&#x142;" 
d="M715 170h170q34 0 59 -25t25 -59q0 -35 -24.5 -60.5t-59.5 -25.5h-508q-35 0 -59.5 25.5t-24.5 60.5q0 34 24.5 59t59.5 25h168v303l-109 -108q-24 -25 -59 -25t-59.5 24.5t-24.5 59.5t24 59l228 228v450h-170q-35 0 -59.5 24.5t-24.5 59.5t24.5 59.5t59.5 24.5h256
q34 0 59 -25t25 -59v-364l110 110q25 25 60 25q34 0 59 -25t25 -59q0 -35 -25 -60l-229 -229v-473z" />
    <glyph glyph-name="Scaron" unicode="&#x160;" 
d="M397 1329h437q80 0 151.5 -67.5t71.5 -163.5q0 -36 -25.5 -61t-56.5 -25q-43 0 -59 19.5t-30.5 72.5t-64.5 53h-415q-30 0 -30 -19q0 -12 13 -28l623 -797q45 -58 45 -124q0 -75 -54.5 -132t-121.5 -57h-453q-90 0 -156.5 68.5t-66.5 150.5q0 94 88 94q34 0 58 -24.5
t24 -57.5q0 -27 18.5 -45t46.5 -18h418q27 0 27 21q0 10 -13 26l-622 797q-44 57 -44 124q0 78 56 135.5t135 57.5zM618 1560l271 125q17 8 36 8q36 0 59.5 -26.5t23.5 -59.5q0 -54 -47 -76l-306 -141q-20 -8 -37 -8q-19 0 -36 8l-306 141q-47 24 -47 76q0 33 23.5 59.5
t59.5 26.5q18 0 36 -8z" />
    <glyph glyph-name="scaron" unicode="&#x161;" 
d="M442 965h385q90 0 159 -53.5t69 -104.5q0 -36 -25.5 -59t-56.5 -23q-40 0 -73 36t-69 36h-380q-56 0 -56 -47q0 -33 37 -50l447 -198q68 -30 111.5 -96.5t43.5 -147.5q0 -108 -76.5 -183t-173.5 -75h-340q-88 0 -163.5 53t-75.5 103q0 33 24.5 58.5t63.5 25.5
q32 0 68.5 -36t105.5 -36h313q37 0 62 28.5t25 65.5q0 57 -56 82l-451 203q-65 29 -100 84t-35 112q0 90 62.5 156t154.5 66zM618 1196l271 125q17 8 36 8q36 0 59.5 -26.5t23.5 -59.5q0 -54 -47 -76l-306 -141q-20 -8 -37 -8q-19 0 -36 8l-306 141q-47 24 -47 76
q0 33 23.5 59.5t59.5 26.5q18 0 36 -8z" />
    <glyph glyph-name="Zcaron" unicode="&#x17d;" 
d="M287 1329h766v-108l-617 -1053h533q35 0 59.5 -24.5t24.5 -59.5q0 -34 -25 -59t-59 -25h-764v111l616 1048h-534q-34 0 -58 25.5t-24 60.5q0 34 24 59t58 25zM618 1560l271 125q17 8 36 8q36 0 59.5 -26.5t23.5 -59.5q0 -54 -47 -76l-306 -141q-20 -8 -37 -8q-19 0 -36 8
l-306 141q-47 24 -47 76q0 33 23.5 59.5t59.5 26.5q18 0 36 -8z" />
    <glyph glyph-name="zcaron" unicode="&#x17e;" 
d="M1055 881v-68q0 -40 -29 -68l-596 -577h539q35 0 59.5 -24.5t24.5 -59.5t-24.5 -59.5t-59.5 -24.5h-676q-36 0 -61 24.5t-25 59.5v72q0 36 45 80l584 561h-504q-35 0 -59.5 25t-24.5 61q0 33 25 58.5t59 25.5h639q35 0 59.5 -25.5t24.5 -60.5zM618 1196l271 125
q17 8 36 8q36 0 59.5 -26.5t23.5 -59.5q0 -54 -47 -76l-306 -141q-20 -8 -37 -8q-19 0 -36 8l-306 141q-47 24 -47 76q0 33 23.5 59.5t59.5 26.5q18 0 36 -8z" />
    <glyph glyph-name="brokenbar" unicode="&#xa6;" 
d="M705 870q0 -35 -25.5 -60.5t-61.5 -25.5q-34 0 -58.5 25.5t-24.5 60.5v377q0 35 25 58.5t61 23.5q34 0 59 -23.5t25 -58.5v-377zM705 86q0 -35 -25.5 -60.5t-61.5 -25.5q-34 0 -58.5 25.5t-24.5 60.5v377q0 34 25 58t61 24q34 0 59 -24t25 -58v-377z" />
    <glyph glyph-name="uni00AD" unicode="&#xad;" 
d="M1053 670v-74q0 -35 -24.5 -60.5t-59.5 -25.5h-678q-35 0 -59.5 25.5t-24.5 60.5v74q0 35 24.5 59.5t59.5 24.5h678q32 0 58 -23.5t26 -60.5z" />
    <glyph glyph-name="uni00AF" unicode="&#xaf;" 
d="M1247 1415h-1257v170h1257v-170z" />
    <glyph glyph-name="Eth" unicode="&#xd0;" 
d="M375 1159h-86q-35 0 -59.5 25.5t-24.5 60.5q0 34 24.5 59t59.5 25h332q65 -1 126.5 -42t90.5 -99l166 -336q47 -91 47 -190q0 -92 -50 -189l-167 -332q-32 -64 -92 -102.5t-134 -38.5h-321q-35 0 -59.5 25t-24.5 59q0 35 24.5 60.5t59.5 25.5h88v414h-88q-34 0 -59 24.5
t-25 59.5q0 34 25 59t59 25h88v407zM543 168h59q56 0 84 55l166 330q31 65 31 109q0 55 -25 104l-172 342q-27 51 -88 51h-55v-407h84q35 0 60.5 -24.5t25.5 -59.5t-25.5 -59.5t-60.5 -24.5h-84v-416z" />
    <glyph glyph-name="eth" unicode="&#xf0;" 
d="M1057 307q0 -113 -106.5 -209t-219.5 -96h-197q-115 0 -220 97.5t-105 207.5v185q0 110 102.5 207.5t222.5 97.5h84l-157 157l-42 -43l-69 -70q-26 -26 -61 -26t-59.5 24.5t-24.5 59.5t24 59l113 113l-113 115q-24 24 -24 59t24.5 59.5t59.5 24.5q28 0 42 -10.5t72 -69
t58 -59.5l114 115q25 24 60 24q34 0 59 -24.5t25 -59.5q0 -28 -10.5 -42t-69 -72t-60.5 -58l410 -409q68 -68 68 -172v-185zM889 313v170q0 50 -31 74l-59 47q-30 25 -70 25h-174q-57 0 -88 -27l-57 -49q-31 -26 -31 -68v-170q0 -46 33 -73l63 -54q21 -18 59 -18h195
q43 0 78 31l51 45q31 24 31 67z" />
    <glyph glyph-name="Yacute" unicode="&#xdd;" 
d="M717 637v-553q0 -35 -25 -59.5t-59 -24.5q-36 0 -61 24.5t-25 59.5v553l-338 428v178q0 36 24.5 61t59.5 25t60.5 -25.5t25.5 -60.5v-115l252 -325l256 323v117q0 35 25 60.5t59 25.5q33 0 58.5 -23.5t25.5 -62.5v-176zM858 1685q18 8 37 8q36 0 59 -26.5t23 -59.5
q0 -54 -47 -76l-305 -141q-18 -8 -37 -8q-36 0 -59 26.5t-23 59.5q0 54 47 76z" />
    <glyph glyph-name="yacute" unicode="&#xfd;" 
d="M1055 719l-453 -1024q-23 -55 -80 -55h-233q-35 0 -59.5 24t-24.5 60q0 35 24.5 59t59.5 24h180l115 267h-41q-57 0 -82 59l-252 586v162q0 35 24 59.5t58 24.5q35 0 60.5 -24.5t25.5 -59.5v-125l221 -512h59l228 510v129q0 33 25.5 58.5t60.5 25.5q34 0 59 -25t25 -59
v-164zM858 1321q18 8 37 8q36 0 59 -26.5t23 -59.5q0 -54 -47 -76l-305 -141q-18 -8 -37 -8q-36 0 -59 26.5t-23 59.5q0 54 47 76z" />
    <glyph glyph-name="Thorn" unicode="&#xde;" 
d="M1055 565q0 -104 -74 -178t-178 -74h-426v-229q0 -35 -24.5 -59.5t-59.5 -24.5q-36 0 -61 24.5t-25 59.5v1161q0 35 25 59.5t61 24.5q35 0 59.5 -24.5t24.5 -59.5v-280h426q103 0 177.5 -75t74.5 -179v-146zM887 565v146q0 34 -25 59t-59 25h-426v-314h426q34 0 59 25
t25 59z" />
    <glyph glyph-name="thorn" unicode="&#xfe;" 
d="M377 96v-372q0 -36 -24.5 -61t-59.5 -25t-60.5 25t-25.5 61v1521q0 35 25 59.5t61 24.5q34 0 59 -24.5t25 -59.5v-377q122 136 241 136h39q89 0 164 -66l140 -121q92 -80 92 -203v-262q0 -124 -99 -209l-137 -118q-68 -62 -172 -62h-37q-98 0 -166 68zM614 133h43
q31 0 66 31l131 115q33 26 33 71v271q0 40 -37 71l-141 121q-24 21 -52 21h-49q-28 0 -73 -46l-125 -124q-33 -33 -33 -74v-215q0 -39 37 -76l121 -121q45 -45 79 -45z" />
    <glyph glyph-name="minus" unicode="&#x2212;" 
d="M961 752q35 0 60.5 -24.5t25.5 -59.5t-25.5 -59.5t-60.5 -24.5h-685q-34 0 -58.5 24.5t-24.5 59.5q0 34 24.5 59t58.5 25h685z" />
    <glyph glyph-name="multiply" unicode="&#xd7;" 
d="M761 668l226 -226q26 -24 26 -60q0 -34 -25.5 -60t-59.5 -26q-35 0 -60 26l-228 227l-225 -227q-25 -24 -60 -24q-36 0 -59.5 25t-23.5 59t24 58l226 228l-226 225q-23 24 -23 57q0 36 25.5 61.5t60.5 25.5t58 -23l225 -228l226 226q25 25 61 25q35 0 59 -25t24 -58
q0 -36 -25 -61z" />
    <glyph glyph-name="onesuperior" unicode="&#xb9;" 
d="M879 694h-328q-33 0 -53.5 21.5t-20.5 52.5t20.5 52.5t53.5 21.5h90v340h-90q-33 0 -53.5 21t-20.5 52t20.5 52.5t53.5 21.5h164q74 0 74 -74v-413h90q33 0 53.5 -21.5t20.5 -52.5t-20.5 -52.5t-53.5 -21.5z" />
    <glyph glyph-name="twosuperior" unicode="&#xb2;" 
d="M893 1077q0 -52 -43.5 -95.5t-95.5 -43.5h-211v-96h254q33 0 53 -21.5t20 -52.5t-20 -52.5t-53 -21.5h-328q-74 0 -74 74v178q0 52 44 95.5t96 43.5h210v97h-266q-33 0 -53 21t-20 52t20 52.5t53 21.5h275q52 0 95.5 -43.5t43.5 -95.5v-113z" />
    <glyph glyph-name="threesuperior" unicode="&#xb3;" 
d="M966 834q0 -52 -43.5 -96t-95.5 -44h-275q-33 0 -53 21.5t-20 52.5t20 52.5t53 21.5h266v96h-114q-34 0 -54 21.5t-20 52.5t20 52t54 21h114v97h-266q-33 0 -53 21t-20 52t20 52.5t53 21.5h275q52 0 95.5 -43.5t43.5 -95.5v-113q0 -37 -25 -65q25 -28 25 -66v-112z" />
    <glyph glyph-name="onehalf" unicode="&#xbd;" 
d="M452 694h-328q-33 0 -53.5 21.5t-20.5 52.5t20.5 52.5t53.5 21.5h90v340h-90q-33 0 -53.5 21t-20.5 52t20.5 52.5t53.5 21.5h164q74 0 74 -74v-413h90q33 0 53.5 -21.5t20.5 -52.5t-20.5 -52.5t-53.5 -21.5zM1238 1192l-1090 -1157q-23 -25 -52 -25q-30 0 -53 23.5
t-23 52.5q0 28 21 51l1090 1157q23 25 52 25q30 0 53 -23t23 -53q0 -28 -21 -51zM1207 383q0 -52 -43.5 -95.5t-95.5 -43.5h-211v-96h254q33 0 53 -21.5t20 -52.5t-20 -52.5t-53 -21.5h-328q-74 0 -74 74v178q0 52 44 95.5t96 43.5h210v97h-266q-33 0 -53 21t-20 52t20 52.5
t53 21.5h275q52 0 95.5 -43.5t43.5 -95.5v-113z" />
    <glyph glyph-name="onequarter" unicode="&#xbc;" 
d="M452 694h-328q-33 0 -53.5 21.5t-20.5 52.5t20.5 52.5t53.5 21.5h90v340h-90q-33 0 -53.5 21t-20.5 52t20.5 52.5t53.5 21.5h164q74 0 74 -74v-413h90q33 0 53.5 -21.5t20.5 -52.5t-20.5 -52.5t-53.5 -21.5zM1238 1192l-1090 -1157q-23 -25 -52 -25q-30 0 -53 23.5
t-23 52.5q0 28 21 51l1090 1157q23 25 52 25q30 0 53 -23t23 -53q0 -28 -21 -51zM1215 147h-20v-73q0 -34 -21.5 -54t-52.5 -20t-52.5 20t-21.5 54v73h-264q-74 0 -74 74v340q0 34 21.5 54t52.5 20t52.5 -20t21.5 -54v-266h190v246q0 33 21.5 53t52.5 20t52.5 -20t21.5 -53
v-246h20q34 0 54 -21.5t20 -52.5t-20 -52.5t-54 -21.5z" />
    <glyph glyph-name="threequarters" unicode="&#xbe;" 
d="M537 834q0 -52 -43.5 -96t-95.5 -44h-275q-33 0 -53 21.5t-20 52.5t20 52.5t53 21.5h266v96h-114q-34 0 -54 21.5t-20 52.5t20 52t54 21h114v97h-266q-33 0 -53 21t-20 52t20 52.5t53 21.5h275q52 0 95.5 -43.5t43.5 -95.5v-113q0 -37 -25 -65q25 -28 25 -66v-112z
M1238 1192l-1090 -1157q-23 -25 -52 -25q-30 0 -53 23.5t-23 52.5q0 28 21 51l1090 1157q23 25 52 25q30 0 53 -23t23 -53q0 -28 -21 -51zM1215 147h-20v-73q0 -34 -21.5 -54t-52.5 -20t-52.5 20t-21.5 54v73h-264q-74 0 -74 74v340q0 34 21.5 54t52.5 20t52.5 -20t21.5 -54
v-266h190v246q0 33 21.5 53t52.5 20t52.5 -20t21.5 -53v-246h20q34 0 54 -21.5t20 -52.5t-20 -52.5t-54 -21.5z" />
    <glyph glyph-name="uniF003" unicode="&#xf003;" 
d="M901 841h-20v-73q0 -34 -21.5 -54t-52.5 -20t-52.5 20t-21.5 54v73h-264q-74 0 -74 74v340q0 34 21.5 54t52.5 20t52.5 -20t21.5 -54v-266h190v246q0 33 21.5 53t52.5 20t52.5 -20t21.5 -53v-246h20q34 0 54 -21.5t20 -52.5t-20 -52.5t-54 -21.5z" />
    <glyph glyph-name="currency" unicode="&#xa4;" 
d="M992 365l90 -91q24 -24 24 -59t-24.5 -59.5t-59.5 -24.5q-34 0 -59 25l-96 96q-64 -47 -156 -47h-115q-87 0 -155 45l-97 -94q-24 -25 -59 -25t-59.5 24.5t-24.5 59.5t25 59l90 91q-45 64 -45 163v113q0 100 45 162l-90 90q-25 25 -25 59q0 35 24.5 59.5t59.5 24.5
t59 -24l95 -94q66 47 157 47h115q91 0 158 -47l94 94q25 24 59 24q35 0 59.5 -24.5t24.5 -59.5q0 -34 -24 -59l-90 -90q45 -61 45 -162v-113q0 -99 -45 -163zM867 549v72q0 74 -31 100l-57 49q-29 27 -88 27h-74q-57 0 -88 -27l-58 -49q-30 -28 -30 -100v-72q0 -74 30 -100
l58 -50q31 -26 88 -26h74q57 0 88 26l57 50q31 28 31 100z" />
  </font>
</defs>
</svg>
